<svg xmlns="http://www.w3.org/2000/svg" xmlns:xlink="http://www.w3.org/1999/xlink" width="597.19" height="465.3" viewBox="0 0 597.19 465.3"><defs><linearGradient id="a" x1="127.58" y1="92.3" x2="216.39" y2="136.9" gradientUnits="userSpaceOnUse"><stop offset="0.05" stop-color="#e09678"/><stop offset="1" stop-color="#d68868"/></linearGradient></defs><g style="isolation:isolate"><g style="opacity:0.9"><polygon points="0 244.56 366.69 460.58 593.55 328.45 224.93 113.78 0 244.56" style="fill:#fff"/></g><polygon points="105.18 213.81 141.19 234.76 198.17 201.4 158.66 181.62 105.18 213.81" style="opacity:0.1"/><polygon points="155.01 183.97 158.66 181.62 164.14 147.1 161.02 148.69 155.01 183.97" style="fill:#a0a0a0"/><g style="isolation:isolate"><polygon points="132.53 99.26 133.3 105.52 174.56 81.7 173.79 75.45 132.53 99.26" style="fill:#a0a0a0"/><path d="M123.58,90.34l11.35,92.28,55.92-32.29L179.5,58.05Zm9.72,15.18-.77-6.26,41.26-23.81.76,6.25Z" style="fill:#f2f2f2"/></g><polygon points="111.78 173.51 132.53 162.6 123.58 90.34 111.78 173.51" style="fill:#787878"/><polygon points="105.18 213.81 108.06 211.81 114.14 172.27 111.78 173.51 105.18 213.81" style="fill:#dedede"/><polygon points="105.18 213.81 108.74 211.4 114.82 171.85 111.78 173.51 105.18 213.81" style="fill:#a0a0a0"/><polygon points="123.58 90.34 141.19 234.76 144.57 233.03 126.16 88.85 123.58 90.34" style="fill:#a0a0a0"/><polygon points="176.93 59.45 194.88 203.88 198.17 201.4 179.51 57.97 176.93 59.45" style="fill:#a0a0a0"/><polygon points="153.99 111.92 157.95 144.13 162.04 141.76 158.08 109.55 153.99 111.92" style="fill:#1ea5be"/><polygon points="163.42 113.63 166.56 139.16 170.65 136.79 167.51 111.27 163.42 113.63" style="fill:#41ba5d"/><g style="isolation:isolate"><polygon points="151.84 156.57 152.12 158.83 180 142.74 179.72 140.47 151.84 156.57" style="fill:#a0a0a0"/><polygon points="141.19 157.77 141.47 160.03 180 137.79 179.72 135.52 141.19 157.77" style="fill:#a0a0a0"/><polygon points="146.82 128.63 149.34 149.1 153.43 146.73 150.92 126.27 146.82 128.63" style="fill:#f5cd2f"/><polygon points="139.14 140.11 140.73 154.07 144.82 151.71 143.23 137.75 139.14 140.11" style="fill:#d5363b"/></g><polygon points="171.24 97.43 175.17 134.19 179.26 131.82 175.33 95.07 171.24 97.43" style="fill:#004169"/><path d="M232.82,101c-2.42-.77-4.27.53-5.72,2.3-3.88,4.74-11.93,14-12,14s-5.51,1.41-7.93,1.88c-3.18.6-7.74,2.14-11,2.24-.77,0-1.47,1.44-1.41,2,0,.25.17,2.89,1.31,2.89,5.74,0,15.86.81,21.41-.81,3-.87,5.34-3.3,7.47-5.41a109.32,109.32,0,0,0,10.17-11.74A4.78,4.78,0,0,0,232.82,101Z" style="fill:#004169"/><path d="M227.21,142.47s-.68,13.07,0,15.34,3.18,5.58,10.79,7c8,1.53,14.42-.15,15.42-3.65,1.78-6.24.07-17.38.07-17.38Z" style="fill:#002d42"/><path d="M255.28,205.71c-.15-2.91-.34-5.82-.52-8.73l-.28-4.38-.16-2.22-.09-1.13-.14-1.28.08.58-.12-8.78-.13-8.78-.17-8.78-.22-8.77c0-.21,0-.43-.05-.64a7.12,7.12,0,1,0-14.15,1.64l1,8.72,1.06,8.71,1.1,8.71,1.11,8.71.07.58.2.87.21,1,.4,2.1.79,4.27,1.56,8.56,1.57,8.58,1.61,8.58a3.08,3.08,0,0,0,6.1-.69h0C255.88,217.34,255.59,211.53,255.28,205.71Z" style="fill:#002d42"/><path d="M233.57,146.45a7.14,7.14,0,0,0-7.28,7s0,1-.06,2.73-.08,4.22-.1,7.19-.06,6.45,0,10.19c0,1.88,0,3.82.06,5.79,0,1,0,2,.08,3.05l0,.8,0,.86.1,1.46.16,2.88c.05,1,.1,2,.15,2.92.09,2,.18,3.86.27,5.7.2,3.71.38,7.16.53,10.12.34,5.93.56,9.88.56,9.88a3.08,3.08,0,0,0,6.14.12h0s.1-1,.26-2.71.38-4.19.65-7.15.54-6.41.85-10.11c.14-1.85.29-3.76.44-5.71.07-1,.14-2,.22-2.94l.21-3,.09-1.49.12-1.3.3-2.81c.23-1.91.45-3.79.67-5.61.46-3.66.89-7.08,1.25-10,.73-5.87,1.21-9.77,1.21-9.77a5.81,5.81,0,0,0,0-.72A7.13,7.13,0,0,0,233.57,146.45Z" style="fill:#002d42"/><path d="M253.66,102.65c-3.52-2.86-11.9-5.39-22.42-2-2.71.87-4.28,3.62-4.33,7.62-.06,4.79-.3,19.38-.43,21.25-.34,4.5-.31,21.53-.31,21.53s17.52,8.35,27.08.64c0,0-1.56-15-1.27-18.46.44-5.19,3.21-18.47,4-24.58A6.61,6.61,0,0,0,253.66,102.65Z" style="fill:#fff"/><path d="M231.24,100.14c-2.71.88-4.1,2.68-4.93,6.59-1.51,7.15,0,22.23-.14,24.11-.33,4.49-1.26,24.63-1.26,24.63a30.17,30.17,0,0,0,8.49,2.62c-1.05-14.12-.55-32.71.63-46.76.13-4.23,2.06-7.81,2.53-12a7.3,7.3,0,0,1,.24-1.46s-2.34,1.19-3.22,1.47S232.25,99.82,231.24,100.14Z" style="fill:#004169"/><path d="M253.66,102.65c-1.53-1.24-4.26-2.34-7.39-3.49-.09,0-2.37-2-2.47-2.08a12.05,12.05,0,0,1,.31,3.19c-.63,2.88-3,5.8-5.28,18.62-.62,3.47-.33,7-.39,10.56.11,8.28.4,20.36,1,28.64,4.1.14,12.46-.51,15.72-3.13,0,0-.91-18-.61-21.44.44-5.18.6-18.76,1.42-24.87A6.61,6.61,0,0,0,253.66,102.65Z" style="fill:#004169"/><path d="M255.73,107c-2.16,2.64-3.71,3.42-5,6.62-1.09,2.63.47,9.53.51,12.29,0,3-4,2.79-6.58,3.61a23.86,23.86,0,0,1-6.16,1.48c0,1.13,0,2.33.07,3.56a3.22,3.22,0,0,1,1.67.95c3.29,3.38,6.91,3.53,11.39,3.38,1,0,2-.09,3-.18,0-2.35-.06-4.28,0-5.19.44-5.18.6-18.76,1.42-24.87a7.2,7.2,0,0,0,0-2Z" style="fill:#003454"/><path d="M237.75,93.45l-1.21,5.63a3.47,3.47,0,0,0,3.27,3.67c1.92.11,4.19-1.62,4.3-3.54l-.81-5.43Z" style="fill:#df9877"/><path d="M237.75,93.45l-1,4.66c1.23,1.44,5.69,1.44,6.53-.49.13-.3.33-.57.47-.86l-.45-3Z" style="fill:#c6876a"/><path d="M233.59,92.4c-.22,3.83,2.55,6,5.24,5.83,2.23-.18,6.85-1.7,7.07-5.47l1.17-6.93-12.91-3.09Z" style="fill:#df9877"/><path d="M236,79c-5.85,3.22-2,5.32-2,5.32s9.15.76,9.14,2.31c0,.45-.64,3.15-.64,3.15l1,.85.84-1.35-.48,7a11.26,11.26,0,0,0,4.21-6.53c.44-1.79,1.81-5.52.42-7.5C245.74,78.15,241.39,76,236,79Z" style="fill:#5e371d"/><path d="M244.69,89.13A2.36,2.36,0,0,0,244,90l-.11,2.78c1.2.65,2.52-1.27,2.41-2.81C246.18,88.75,245.32,88.75,244.69,89.13Z" style="fill:#df9877"/><path d="M229.47,216.38c-1.08.67-4.52,4.08-6,5.24-1.62,1.29-2.71,1.87-3,2.64-.45,1.25.14,1.48,1.35,1.88a7.08,7.08,0,0,0,5.29-1,13.89,13.89,0,0,1,4-2s1.71-.45,2.25-.68a2.14,2.14,0,0,0,1.18-2s0-3-1-3.83A4.24,4.24,0,0,0,229.47,216.38Z" style="fill:#071e2a"/><path d="M250.52,221.44s-2.82,4.13-4,5.33c-3.22,3.39-3.28,3-3.31,3.85,0,1.26,1.49,1.95,2.6,2.1a5.17,5.17,0,0,0,3.93-1.21l5.32-4.41a2.35,2.35,0,0,0,1.16-2,8.08,8.08,0,0,0-1-3.86C253.23,218.84,250.52,221.44,250.52,221.44Z" style="fill:#071e2a"/><path d="M233,102.16l.59-2.81c-.32.91-.6,1.82-.88,2.74,0,.11-.07.24-.09.35a2.71,2.71,0,0,0-.06.38c0,.24,0,.48-.05.73,0,.43,0,.86,0,1.29l-2.83,1.7-.17.1,0,.21.33,2.88.35,2.87.37,2.87.39,2.87q.39,2.86.84,5.72c.15,1,.3,1.91.47,2.86s.32,1.9.51,2.85c-.07-1-.15-1.92-.23-2.89s-.17-1.92-.27-2.88q-.28-2.88-.62-5.75l-.35-2.88L231,112.5l-.39-2.87L230.2,107l2.71-1.78.13-.09V105c-.06-.46-.1-.94-.12-1.41,0-.23,0-.47,0-.7s0-.22,0-.33A2.14,2.14,0,0,1,233,102.16Z" style="fill:#1d1d1b;opacity:0.4"/><path d="M247.09,103.56s0-.07,0-.1l0-.06Z" style="fill:#1d1d1b;opacity:0.4"/><path d="M247.11,103.46s0,.06,0,.1v-.16l0,.06a2.73,2.73,0,0,0,.1-.48,3.86,3.86,0,0,0,0-.58,7.11,7.11,0,0,0-.1-1.14,10.16,10.16,0,0,0-.58-2.18,13.82,13.82,0,0,1,.36,2.2,5.24,5.24,0,0,1-.23,2.14l0,.08,0,.08c.45,1,.91,2,1.37,3l.09-.14,0,.3s-.05-.1-.07-.16c-.51.78-1,1.56-1.44,2.36s-.93,1.7-1.37,2.57l-.64,1.31c-.22.44-.41.89-.61,1.33s-.38.9-.57,1.35-.37.89-.54,1.35l-.5,1.38-.45,1.38c-.16.46-.27.94-.41,1.4s-.27.94-.37,1.42l-.32,1.42c-.1.48-.16,1-.24,1.44s-.16,1-.2,1.44-.09,1-.14,1.45c.1-.48.21-1,.3-1.42s.2-.95.32-1.42l.36-1.4.4-1.38c.13-.47.29-.92.44-1.38s.29-.92.46-1.37l.49-1.35.54-1.34c.17-.45.36-.9.55-1.34s.37-.89.57-1.32c.4-.88.8-1.75,1.22-2.62s.87-1.71,1.32-2.56.93-1.69,1.42-2.51l.09-.15-.07-.15C248.17,105.45,247.64,104.45,247.11,103.46Z" style="fill:#1d1d1b;opacity:0.4"/><path d="M248.15,106.72l0-.3-.09.14C248.1,106.62,248.13,106.67,248.15,106.72Z" style="fill:#1d1d1b;opacity:0.4"/><polygon points="228.65 124.42 228.35 125.16 232.27 129.93 234.53 132.75 240.32 130.59 235.82 124.01 228.65 124.42" style="fill:#071e2a"/><path d="M257,108.45a14.63,14.63,0,0,0-1.31-2.76,10.46,10.46,0,0,0-4.38,5.18,3.21,3.21,0,0,1-2.71,2.28c2,5.31,4.17,10.59,6,16-2.34.48-4.71.73-7.08,1-1.52.18-3.64,0-5,.76a2.82,2.82,0,0,0-.4,4.69c1.29,1,3.64.91,5.16,1.08,4.47.49,16.29,1.86,16.64-4.88l0-.51c-.06-4.88-2.36-10.08-3.93-14.63Q258.6,112.52,257,108.45Z" style="fill:#004169"/><path d="M240,128.24c-.61-.47-2.76-2.33-2.76-2.33s-1.61.64-.08,1.94,1.59,2.08,1,2.54-4.14-.36-5.8-.73c-.31-.07-.95-1.54-2.23-2.34-.79-.5-1.24.15-1.12.45s1.89,2.82,1.89,2.82,2.36,3.79,3.19,4.13,7.22.9,8.11.29.8-2,.68-3S240.6,128.71,240,128.24Z" style="fill:#df9877"/><path d="M194.84,121.76s-.88-1.11-1.1-1.41a14.55,14.55,0,0,0-2.42-1.91,17.33,17.33,0,0,0-2.93-1.75c-.2.09-.78.51.22,1.36s1.72,1.41,1.39,2.3c-.09.23-1.25.19-2.28.59l-.42,0-.64,0h-2l-1.19,0H182.3a.55.55,0,0,0-.55.55.56.56,0,0,0,.51.55l.32,0,.84,0,.56,0,.63,0,1.37,0h.39c0,.07,0,.14-.05.22h-2.13l-1.31,0-.92,0h-.35a.55.55,0,0,0-.53.57.56.56,0,0,0,.54.53h1.27l1.3,0h2.1v.08h-.15l-.38,0-.38,0-.73,0-1.31,0-.93,0h-.36a.55.55,0,0,0,0,1.1l.36,0,1,0H184c.23,0,.46,0,.71,0h.76l.78,0h.15c-.46.64-3,.33-3.69.4a.33.33,0,0,0-.33.4c.05.46.61.44.74.5a33.93,33.93,0,0,0,7,.4,11.88,11.88,0,0,0,3.69-.76l1.86-.11s.54-.14.54-1.9a4.59,4.59,0,0,0-.27-2Z" style="fill:url(#a)"/><path d="M236.49,98.4l-.42.35a11.09,11.09,0,0,0-.41,3.16,9.22,9.22,0,0,0,1.14,3.53l1.62-2.62A4.49,4.49,0,0,1,236.49,98.4Z" style="fill:#d3d3d3;mix-blend-mode:multiply"/><path d="M238.23,102.68l1.55,2.91s4.2-2.14,4.68-5.24A4.21,4.21,0,0,0,243.7,97,7,7,0,0,1,238.23,102.68Z" style="fill:#d3d3d3;mix-blend-mode:multiply"/><path d="M236.8,97.88l-.73.36a11.09,11.09,0,0,0-.41,3.16,9.22,9.22,0,0,0,1.14,3.53l1.62-2.56A4.1,4.1,0,0,1,236.8,97.88Z" style="fill:#fff"/><path d="M238.42,102.37l1.36,2.71s4.2-2.14,4.68-5.24a4.21,4.21,0,0,0-.76-3.38A6.75,6.75,0,0,1,238.42,102.37Z" style="fill:#fff"/><g style="isolation:isolate"><path d="M145.18,157a5.44,5.44,0,0,1-4.94,0,1.73,1.73,0,0,1-1-1.42l.71,7.24a1.6,1.6,0,0,0,.89,1.15,4.24,4.24,0,0,0,3.8,0,1.59,1.59,0,0,0,.9-1.17l.69-7.24A1.75,1.75,0,0,1,145.18,157Z" style="fill:#1ea5be"/><path d="M145.19,154.16a5.41,5.41,0,0,0-4.94,0c-1.37.8-1.37,2.08,0,2.87a5.44,5.44,0,0,0,4.94,0C146.55,156.23,146.55,155,145.19,154.16Z" style="fill:#fff"/><path d="M144.75,154.41a4.47,4.47,0,0,0-4.06,0,1.24,1.24,0,0,0,0,2.35,4.47,4.47,0,0,0,4.06,0A1.24,1.24,0,0,0,144.75,154.41Z" style="fill:#c7c7c7"/></g><path d="M140.69,156.07a2.61,2.61,0,0,0-.47.35,2,2,0,0,0,.46.34,4.47,4.47,0,0,0,4.06,0,1.92,1.92,0,0,0,.47-.35,2.89,2.89,0,0,0-.46-.34A4.47,4.47,0,0,0,140.69,156.07Z" style="fill:#513b38"/><path d="M122.36,260c-1.74,0-3.4,1.54-5.06,1.35s-5.68,1.41-5.68,1.41-1,5,0,5.87c0,0,1.78,1.77,4.63,0,2.19-1.36,4.93-3.4,6.94-4.4S124.92,260,122.36,260Z" style="fill:#7a7a7a"/><path d="M145.39,267.89c-.73.08-2.3.37-3.44.49a14.56,14.56,0,0,1-3.62-.14s-4.3.52-4.68,1.38a6.43,6.43,0,0,0,0,3.29c.41,2,3,2.41,4.15,2.07s3.5-1.3,4.78-1.75,4-.81,4.83-2.34C148.53,269,147.58,267.66,145.39,267.89Z" style="fill:#7a7a7a"/><path d="M137.32,204c-.63-6-9-9-12.53-4.1-2.75,3.88-1.12,8.36-.28,12.47,2.69,13.2,5.4,23.74,5.79,36.64.15,5.11,2.43,16.07,3.21,21.14.24,1.62,5.56.82,5.72-.67.48-4.4.2-26.87.16-33.37C139.31,224.81,138.44,215.14,137.32,204Z" style="fill:#004169"/><path d="M113.81,198.76c-3.16,2.92-2.87,5.5-2.62,9.32.87,13.06.13,23.48-.44,33.8-.33,5.84.74,15.53.74,21.38,0,2.6,4.89,1.68,5.43-.33,1.13-4.28,1.23-9.11,1.83-13.5.76-5.58,1.46-11.18,2.37-16.74,1.53-9.36,2.64-18.79,3.82-28.2C125.65,198.47,118.3,194.62,113.81,198.76Z" style="fill:#004169"/><path d="M120.55,175.28a37.73,37.73,0,0,1-8.43-.47c1.29-4.53,2.55-8.32,4.2-12.73.75-2,2.38-4.83,1.73-7.06a4.34,4.34,0,0,0-7.89-.9c-1.89,3.23-7.7,21.54-6.43,24.87,1.57,4.13,22.84,4.15,19.6-1.84A5.28,5.28,0,0,0,120.55,175.28Z" style="fill:#1c2d36"/><path d="M120.55,175.28a37.73,37.73,0,0,1-8.43-.47c1.29-4.53,2.55-8.32,4.2-12.73.75-2,2.38-4.83,1.73-7.06A4.24,4.24,0,0,0,113,152.1a3.39,3.39,0,0,1,.69,4.9c-2.41,2.95-3.4,7.36-4.37,11-1.17,4.32-.92,8.89-1.33,13.32,6.51,1.46,17.81.34,15.38-4.14A5.28,5.28,0,0,0,120.55,175.28Z" style="opacity:0.15"/><path d="M113.07,187.12c-.8,2.13-2.58,8.58-2.29,13.12.19,3,.6,7,2.24,9.56s21.41,7,24.3-1.83c.92-2.78-2.37-17.37-2.37-17.37S115.63,180.29,113.07,187.12Z" style="fill:#004169"/><path d="M137.31,168c.16-1-1.22-4.12-3-8-1.24-2.73-1.46-6.78-2.26-7.77-1.79-2.2-7.24-3.15-9.29-3.43a21.09,21.09,0,0,0-8.89,1.07c-2.07.73-3.81,3.54-4.72,8.28-.84,4.39,3.77,17.54,3.25,25.4-.15,2.27-1.53,12.95-1.53,12.95,1.19,1.88,11.12,5.1,16.15,4.57,9.23-1,9.73-4,9.73-4s-3.29-19.38-4-23C132.47,172.68,136.49,173.29,137.31,168Z" style="fill:#1c2d36"/><path d="M115.78,135.42l.89,7.29c0,3.94,7.11,6,7.11,6,3.81-.05,6.56-1.84,6.51-5.85l-.13-10.09Z" style="fill:#efb19b"/><path d="M147.64,158.85a5.76,5.76,0,0,0-1.45-3l-.14,1.45a3.13,3.13,0,0,1-1.21,2.57c-.64.44-2.54.07-2.54.07a9.31,9.31,0,0,0-1.19-.89c-1-.61-1.27.38-1.27.38s1.62,1.81,2.2,2.4a8.76,8.76,0,0,0,2.58,2.21c2.3.91,3-.14,3-.14a13.28,13.28,0,0,0,.28-3.13A16.07,16.07,0,0,0,147.64,158.85Z" style="fill:#efb19b"/><path d="M146.59,162.4a2,2,0,0,0-2.54,1.1l0,.07-.58,1.47c-.38.94-1,2.28-1.66,3.87-.32.75-.69,1.54-1.08,2.35l-.27-.38a39.6,39.6,0,0,1-3-5.52c-.85-1.89-1.58-3.73-2.16-5.32s-1.05-2.94-1.34-3.88c-.15-.46-.26-.82-.34-1.07l-.11-.35,0-.08,0-.07a4.55,4.55,0,0,0-8.66,2.81l.16.47c.09.29.24.71.42,1.24.39,1,1,2.51,1.7,4.25s1.72,3.74,2.91,5.84c.6,1.05,1.25,2.13,2,3.2a35,35,0,0,0,2.42,3.21,22.64,22.64,0,0,0,3.1,3c.31.23.59.46.92.67l.49.32.12.08.06,0,0,0,.38.22.05,0a4,4,0,0,0,1.22.36,4.71,4.71,0,0,0,.84,0,4.4,4.4,0,0,0,.67-.14,3.94,3.94,0,0,0,1.39-.76,4.85,4.85,0,0,0,.56-.56,5.12,5.12,0,0,0,.53-.76,8.69,8.69,0,0,0,.55-1.11,25.16,25.16,0,0,0,1.13-3.47c.28-1.06.48-2.06.66-3,.35-1.84.53-3.39.63-4.49,0-.55.08-1,.09-1.29s0-.46,0-.46A2,2,0,0,0,146.59,162.4Z" style="fill:#1c2d36"/><path d="M126.79,127.88c-2.22-.93-9.8-1-11.3,4.4-5.08,18.39-4.74,25.88-4.74,25.88s2.86,5.79,11.3,2.72c2.87-1,6.29-18.54,6.25-21.61s1.9-3.58,1.9-3.58C134.91,132.32,129.93,129.21,126.79,127.88Z" style="fill:#5e331d"/><g style="opacity:0.7000000000000001"><path d="M186.24,1.25,219.8,20.63c5,2.92,9.13,10,9.11,15.77l-.11,39.05L221.07,63.7,186.12,43.52c-5.05-2.91-9.12-10-9.11-15.78l.06-21.27C177.09.68,181.19-1.66,186.24,1.25Z" style="fill:#fff"/></g><path d="M324.27,267.06c-.7-.57-4.44-3.55-4.88-4.93a26.83,26.83,0,0,1,.08-4.25l-5.09-.25a19,19,0,0,1-.65,4.29,10.86,10.86,0,0,0-.6,3.42c0,.3.34,1.15,1.9,1.74.49.19,2.29.72,3,1,1.21.55,1.85,2.73,4.05,3.45a7.86,7.86,0,0,0,5.13,0s.45-.51,0-1.55A7.08,7.08,0,0,0,324.27,267.06Z" style="fill:#f4ae9e"/><path d="M324.56,267.28a1.49,1.49,0,0,1-1.78.4c-3.4-1.33-8-2.66-8.83-6.6-.06.29-.14.58-.22.84a10.86,10.86,0,0,0-.6,3.42c0,.3.34,1.15,1.9,1.74.49.19,2.29.72,3,1,1.21.55,1.85,2.73,4.05,3.45a7.86,7.86,0,0,0,5.13,0s.45-.51,0-1.55A6.15,6.15,0,0,0,324.56,267.28Z" style="fill:#004169"/><path d="M299.21,273.34c-1.5-1.76-4.4-5.23-4.56-5.62a29.59,29.59,0,0,1,.54-4.16l-4.71-1.07s-.52,3.27-.57,3.7a8.92,8.92,0,0,1-.63,1.66,5.77,5.77,0,0,0-.42,2.41c0,.72.87,1.65,1.54,2.28a20.7,20.7,0,0,1,2.81,3.33,6.61,6.61,0,0,0,4.65,2.56c1.23.14,3.35-.07,3.73-.44.68-.67.13-2-.22-2.44C300.77,274.78,299.33,273.49,299.21,273.34Z" style="fill:#f4ae9e"/><path d="M300.4,274.49a1.86,1.86,0,0,1-1.15.47c-3.28.24-6.59-2.43-8.53-4.84a9.1,9.1,0,0,1-1.37-2.44,1.47,1.47,0,0,1-.07.17,5.77,5.77,0,0,0-.42,2.41c0,.72.87,1.65,1.54,2.28a20.7,20.7,0,0,1,2.81,3.33,6.61,6.61,0,0,0,4.65,2.56c1.23.14,3.35-.07,3.73-.44.68-.67.13-2-.22-2.44A10.92,10.92,0,0,0,300.4,274.49Z" style="fill:#004169"/><path d="M322.28,200.18c0-.33,0-.61,0-.84l0-.69a6.48,6.48,0,0,0-12.95.59c0,.25,0,.5.08.75v0s0,.24.11.69c0,.22.09.5.14.82s.09.61.15,1c.11.68.23,1.69.35,2.79s.24,2.39.36,3.79c.49,5.63.84,13.35,1.42,21.18.15,2,.32,3.93.52,5.81s.37,3.73.54,5.52c.34,3.6.62,7,.84,9.83s.38,5.28.5,7,.16,2.62.16,2.62v0a2.43,2.43,0,0,0,4.84.05l.22-2.68c.12-1.69.3-4.12.5-7s.39-6.3.57-9.95c.08-1.82.17-3.7.25-5.62s.15-3.79.23-5.7c.35-7.61.95-15.33,1.17-21.27,0-1.49.09-2.87.11-4.1s0-2.3,0-3.3C322.3,201,322.29,200.55,322.28,200.18Z" style="fill:#f4ae9e"/><path d="M305.49,193.85a6.58,6.58,0,0,0-7.63,5.33c0,.22-.06.45-.08.67,0,0-.3,4.08-.74,10.19s-1.07,14.05-2.21,22c-.29,2-.59,4-.88,6s-.56,4-.83,5.86c-.54,3.8-1,7.34-1.48,10.38s-.77,5.58-1,7.35-.37,2.79-.37,2.79a2.29,2.29,0,0,0,4.46,1l.83-2.69c.53-1.71,1.3-4.16,2.18-7.1s1.91-6.36,3-10l1.7-5.66c.29-1,.57-1.94.86-2.92l.22-.73.21-.78.4-1.51c2.13-8.07,3.76-16.26,4.89-22.34s1.79-10.06,1.79-10.06v0A6.58,6.58,0,0,0,305.49,193.85Z" style="fill:#f4ae9e"/><path d="M329.89,179c-.1-.72-.3-1.74-.56-3-.14-.6-.28-1.27-.46-2s-.37-1.42-.6-2.16c-.43-1.49-1-3.05-1.55-4.6a67.74,67.74,0,0,0-3.79-8.28c-.29-.56-.59-1.06-.85-1.51s-.52-.87-.73-1.2l-.59-.92a3.92,3.92,0,1,0-6.58,4.25l.16.24,0,0,.65.85c.17.24.37.5.62.87s.53.77.82,1.23a60.41,60.41,0,0,1,3.94,7.12c.62,1.35,1.22,2.71,1.7,4,.27.65.47,1.28.69,1.88s.37,1.17.54,1.7c.3,1.06.55,1.95.69,2.57s.23,1,.23,1l0,.13a3,3,0,0,0,5.79-1.12Z" style="fill:#f5c42f"/><path d="M319.85,188c-4.69.15-9.42-.34-14.11-.61-1.88-.11-3.8-.18-5.67-.47,0,.4,0,.74,0,1,0,.75-2.13,2.29-4,10.52-2.07,9.31-1.83,30.75-1.83,30.75,1.84,4.85,25.36,5.5,28,1.22.5-.8.24-32.41-.76-38.58C321.38,190.58,320.14,187.94,319.85,188Z" style="fill:#004169"/><path d="M321.62,159.8c-.31-7-4.46-9-13.26-9.14-4,0-7.63,1.49-11.36,5.18-2.23,2.21-2.69,5.56-.51,11.78a71.11,71.11,0,0,1,3.42,18.68,22.26,22.26,0,0,1-.55,3c-.21,2.34,2.18,4.42,6.79,4.71,14.85.94,14.88-2.31,15.24-3.59-.66-2.12-2.32-5.08-.73-12.57C321.64,173.25,321.73,162.42,321.62,159.8Z" style="fill:#f5c42f"/><path d="M302.27,173.28c-.45-2.39-.06-4.82,0-7.22.16-3.94-1.26-9.05-6.1-9.27-1.52,2.21-1.61,5.44.28,10.83a71.11,71.11,0,0,1,3.42,18.68s0,.17,0,.34c.68,0,1.37,0,2.05,0,6-.19,14.34.31,17.25-6.15a1.91,1.91,0,0,1,.54-.71,10.85,10.85,0,0,1-4.62-.78C311.29,178.81,303.08,177.59,302.27,173.28Z" style="fill:#edbe2d"/><path d="M328.37,177.43a3.47,3.47,0,0,0-.78-.32l-.79-.2-1.75-.42-1.64-.39-.25-.06a.47.47,0,0,0-.15,0l-.06,0-2.53,1.08a1.36,1.36,0,0,0-.71,1.78,1.27,1.27,0,0,0,.26.39l.3.32.29.29.35.32c.25.22.52.45.81.68l.9.68c.6.44,1.21.85,1.68,1.14l.58.33.22.13,0,0a3.31,3.31,0,1,0,3.22-5.78Z" style="fill:#f4ae9e"/><path d="M305.6,132c-5.74,6.6.22,9.47.22,9.47l5.68-10.09S308.91,128.2,305.6,132Z" style="fill:#af7032"/><path d="M314.55,147.06l-7.27-.46a6.09,6.09,0,0,1-1.13,4,7.69,7.69,0,0,0,6.1,7.54,3.28,3.28,0,0,0,3.37-1.34c1.18-1.86-1.1-4.34-1.11-5.11C314.47,149.32,314.55,147.06,314.55,147.06Z" style="fill:#f4ae9e"/><path d="M313.4,147l-5.7-.39-.36.79c0,.16-.21.11-.23.19,1.47,3.67,3.81,5.19,5.12,5.43a1.35,1.35,0,0,0,1.54-.95c.28-.94.61-2.35.85-3.42A1.35,1.35,0,0,0,313.4,147Z" style="fill:#1d1d1b;opacity:0.1"/><path d="M305.48,142a9.3,9.3,0,0,0,6.22,9.08c3.61,1.67,5.91-1.84,6.6-5.77l1.13-9.06-13.8.07Z" style="fill:#f4ae9e"/><path d="M309.92,131.68c-1.75.58-5.18,2.5-5.12,9.41a13,13,0,0,0,2.31,6.52l.17-1s.84-5.82,1.67-5.26c1.4.95,1-.3,1.7-.71,6.1-3.74,8.49-1.9,8.49-1.9,1.25-.64.69-2.75-.23-4A8.55,8.55,0,0,0,309.92,131.68Z" style="fill:#af7032"/><path d="M308.14,141.1c-1.18-.16-1.26.81-.94,1.87.53,1.75,1.36,1.57,1.36,1.57l.74-2.76S309.31,141.27,308.14,141.1Z" style="fill:#f4ae9e"/><path d="M328.48,169.63l-5.9-.23a1,1,0,0,0-.79.31l-5.67,7.77a.2.2,0,0,0-.05.17l.24.57a.17.17,0,0,1,0-.16l5.67-7.78a1,1,0,0,1,.79-.31l5.9.23c.2,0,.33.08.35.18l-.23-.57C328.81,169.71,328.68,169.63,328.48,169.63Z" style="fill:#002d42"/><path d="M328.71,170.2l-5.9-.23a1,1,0,0,0-.79.31l-5.67,7.78c-.13.18,0,.33.31.35l5.9.22a1,1,0,0,0,.79-.3l5.67-7.78C329.15,170.37,329,170.21,328.71,170.2Z" style="fill:#002d42"/><path d="M319.32,176.45c-1.4.92-5.34,4.32-5.34,4.32a13.66,13.66,0,0,0,2.81,1.36,8.16,8.16,0,0,0,5.57-2.27,1.7,1.7,0,0,0-.12-2.33C321.61,176.75,319.76,176.15,319.32,176.45Z" style="fill:#f4ae9e"/><path d="M317.86,175.57a7.1,7.1,0,0,1,.54-1.52c.42-1-.49-1.08-.49-1.08-.3.43-1.62,3.06-2.05,3.67a4.38,4.38,0,0,0-.13,3.25c.42.73,2.92-1.33,3.12-2.21C319,177.11,317.69,176.37,317.86,175.57Z" style="fill:#f4ae9e"/><path d="M323.68,172.36l-.89.87c-.54.51-1.27,1.17-2,1.8s-1.55,1.23-2.15,1.64-1,.63-1,.63a.58.58,0,1,0,.56,1h0s.45-.27,1.09-.71,1.43-1.09,2.19-1.76c1.54-1.33,2.93-2.81,2.93-2.81a.48.48,0,0,0-.69-.67Z" style="fill:#f4ae9e"/><path d="M325.14,173s-.34.35-.88.87-1.28,1.17-2,1.81-1.54,1.22-2.15,1.63-1,.63-1,.63a.58.58,0,0,0-.24.79.59.59,0,0,0,.79.23h0s.46-.27,1.09-.71,1.44-1.09,2.2-1.76c1.53-1.33,2.92-2.81,2.92-2.81a.48.48,0,0,0,0-.68A.5.5,0,0,0,325.14,173Z" style="fill:#f4ae9e"/><path d="M325.47,174.31s-.35.36-.9.88-1.3,1.21-2.07,1.86a27.39,27.39,0,0,1-2.18,1.67c-.62.41-1,.64-1,.64a.58.58,0,1,0,.56,1h0s.46-.27,1.11-.72,1.45-1.11,2.23-1.8c1.55-1.37,3-2.88,3-2.88a.48.48,0,0,0,0-.68A.48.48,0,0,0,325.47,174.31Z" style="fill:#f4ae9e"/><path d="M324.8,176.13s-.25.28-.68.69a20.91,20.91,0,0,1-1.61,1.42,20,20,0,0,1-1.74,1.25c-.49.31-.83.49-.83.49a.59.59,0,0,0-.24.79.58.58,0,0,0,.78.24h0s.36-.21.87-.56a20.08,20.08,0,0,0,1.79-1.37,21.49,21.49,0,0,0,1.64-1.54c.43-.43.7-.75.7-.75a.48.48,0,0,0,0-.68A.48.48,0,0,0,324.8,176.13Z" style="fill:#f4ae9e"/><path d="M300.27,156a3.92,3.92,0,0,0-4.94,2.51l-.06.21-.25.94-.28,1.08c-.12.4-.23,1-.36,1.53s-.28,1.19-.39,1.82-.25,1.31-.35,2c-.22,1.39-.41,2.88-.55,4.38s-.22,3-.24,4.4,0,2.73.06,3.86.14,2.09.2,2.77c.05.35.08.62.1.81l.05.33a3.27,3.27,0,0,0,6.51-.65l0-.24s0-.29-.05-.8-.06-1.37,0-2.36,0-2.16.14-3.4.25-2.57.43-3.89.44-2.63.7-3.85c.13-.61.29-1.19.42-1.74s.28-1.05.41-1.52.23-.86.37-1.28.25-.77.35-1.06l.3-.93A3.91,3.91,0,0,0,300.27,156Z" style="fill:#f5c42f"/><path d="M318.35,177.79l-.28.12-.78.33-.4.18-.53.17a12.83,12.83,0,0,1-1.27.36c-.48.11-1,.27-1.56.35s-1.16.22-1.81.29-1.28.18-2,.23-1.36.13-2.06.17-1.39.06-2.07.09-1.36,0-2,.07l-3.59,0-3.46,0h-.05a3.09,3.09,0,1,0-.08,6.18h1.05c.66,0,1.59,0,2.71-.1s2.42-.17,3.81-.34c.7-.09,1.41-.17,2.15-.28s1.47-.24,2.21-.39,1.48-.29,2.21-.46,1.44-.35,2.14-.55,1.35-.43,2-.64,1.23-.48,1.77-.69a15.73,15.73,0,0,0,1.48-.73l.61-.32c.18-.13.35-.24.51-.34l.94-.66a1.73,1.73,0,0,0-1.66-3Z" style="fill:#f4ae9e"/><g style="isolation:isolate"><path d="M415.92,280.53l-58.34-33.9a10.36,10.36,0,0,0-9.45,0l-58.72,33.9c-2.62,1.51-2.64,4,0,5.48l58.34,33.9a10.44,10.44,0,0,0,9.46,0L415.89,286C418.51,284.5,418.52,282,415.92,280.53Z" style="fill:#e8e8e8"/><path d="M415.89,286l-58.72,33.9a8,8,0,0,1-1,.48l-.16.05a9.15,9.15,0,0,1-.93.29l-.19,0c-.35.08-.71.14-1.08.19h-.16c-.37,0-.74.06-1.11.07h-.18c-.38,0-.76,0-1.13-.07l-.19,0-.82-.14-.67-.17-.5-.15a8.35,8.35,0,0,1-1.32-.58L289.37,286l-.41-.3a4.1,4.1,0,0,1-.47-.35,3.57,3.57,0,0,1-.53-.58l-.07-.11a2.44,2.44,0,0,1-.32-.62l0-.08a2.26,2.26,0,0,1-.12-.68l.16,53.89v.05a2.58,2.58,0,0,0,0,.39c0,.08.05.16.07.24s0,.05,0,.08,0,0,0,.06.11.25.18.38a1.88,1.88,0,0,0,.12.18l.07.11a1,1,0,0,1,.08.11,4.2,4.2,0,0,0,.41.44l0,0a4.27,4.27,0,0,0,.46.35c.11.08.21.17.34.25l.08,0,58.34,33.91a8.24,8.24,0,0,0,1.31.58l.15.06c.11,0,.24.06.35.09l.67.17a1.68,1.68,0,0,1,.24.06l.58.08.2,0h.08a6,6,0,0,0,.74.05h.69l.66,0,.24,0H354l.24,0q.33,0,.66-.12l.17,0,.19,0,.34-.09a5.84,5.84,0,0,0,.59-.2l.17-.05.05,0a7.09,7.09,0,0,0,1-.46L416,339.9a3.32,3.32,0,0,0,2-2.76l-.15-53.89A3.34,3.34,0,0,1,415.89,286Z" style="fill:#a7a7a7"/><path d="M415.89,286l-58.72,33.9a8,8,0,0,1-1,.48l-.16.05-.15.05v53.95l.3-.11.17-.05.05,0a7.09,7.09,0,0,0,1-.46L416,339.9a3.32,3.32,0,0,0,2-2.76l-.15-53.89A3.34,3.34,0,0,1,415.89,286Z" style="fill:#969696"/></g><g style="isolation:isolate"><path d="M469.22,251.91l-107.54-62.5c-4.79-2.78-12.61-2.78-17.43,0L236,251.91c-4.82,2.78-4.85,7.31-.05,10.1L343.49,324.5c4.79,2.79,12.61,2.79,17.43,0L469.16,262C474,259.22,474,254.7,469.22,251.91Z" style="fill:#dedede"/><path d="M469.16,262,360.92,324.5a13.55,13.55,0,0,1-1.88.89l-.3.1A15.43,15.43,0,0,1,357,326l-.35.09c-.65.14-1.31.26-2,.34l-.3,0a20,20,0,0,1-2.05.11H352a20.35,20.35,0,0,1-2.07-.11l-.37-.05c-.5-.07-1-.16-1.5-.26s-.83-.19-1.23-.31l-.93-.28a13.64,13.64,0,0,1-2.42-1.07L236,262c-.3-.17-.52-.37-.78-.55s-.6-.41-.85-.63a7.48,7.48,0,0,1-1-1.08l-.14-.21a5.11,5.11,0,0,1-.58-1.14.74.74,0,0,1,0-.14,4.28,4.28,0,0,1-.21-1.27l.28,11.77v.11a5.94,5.94,0,0,0,.08.71,3.19,3.19,0,0,0,.13.44c0,.05,0,.1,0,.14l0,.11a4.94,4.94,0,0,0,.33.7,4,4,0,0,0,.23.34l.13.2.14.2a7.17,7.17,0,0,0,.76.82l.08.06a10.07,10.07,0,0,0,.86.63,5.86,5.86,0,0,0,.62.46l.15.09,107.54,62.5a13.94,13.94,0,0,0,2.42,1.06c.1,0,.17.09.27.12s.44.1.66.17c.41.11.81.22,1.24.3.15,0,.28.09.44.11.35.07.7.11,1.06.15l.36.05.15,0c.46.05.91.08,1.37.09H353c.4,0,.81,0,1.21-.07l.45,0,.31,0,.44-.05c.42-.06.82-.13,1.23-.21l.31-.08.35-.08.62-.16c.38-.1.73-.23,1.09-.36l.31-.11.1,0a13.77,13.77,0,0,0,1.77-.85l108.25-62.5c2.42-1.4,3.64-3.24,3.63-5.08l-.28-11.77C472.8,258.76,471.59,260.61,469.16,262Z" style="fill:#b8b8b8"/><path d="M469.16,262,360.92,324.5a13.55,13.55,0,0,1-1.88.89l-.3.1c-.09,0-.19.05-.28.09v11.86l.56-.18.31-.11.1,0a13.77,13.77,0,0,0,1.77-.85l108.25-62.5c2.42-1.4,3.64-3.24,3.63-5.08l-.28-11.77C472.8,258.76,471.59,260.61,469.16,262Z" style="fill:#c4c4c4"/></g><g style="opacity:0.7000000000000001"><path d="M475.68,145.51l-33.56,19.37c-5.05,2.92-9.13,10-9.11,15.78l.11,39L440.85,208l34.95-20.17c5.05-2.92,9.12-10,9.11-15.78l-.06-21.27C484.83,144.93,480.73,142.59,475.68,145.51Z" style="fill:#fff"/></g><g style="isolation:isolate"><path d="M405.44,272.8a5.68,5.68,0,0,1-5.17,0,1.82,1.82,0,0,1-1.08-1.5l.72,7.57a1.65,1.65,0,0,0,.95,1.22,4.38,4.38,0,0,0,4,0,1.68,1.68,0,0,0,.94-1.2l.74-7.57A1.81,1.81,0,0,1,405.44,272.8Z" style="fill:#fafafa"/><path d="M405.42,269.81a5.69,5.69,0,0,0-5.16,0c-1.43.83-1.42,2.17,0,3a5.68,5.68,0,0,0,5.17,0C406.86,272,406.85,270.64,405.42,269.81Z" style="fill:#fff"/><path d="M405,270.08a4.7,4.7,0,0,0-4.26,0,1.3,1.3,0,0,0,0,2.46,4.68,4.68,0,0,0,4.25,0A1.3,1.3,0,0,0,405,270.08Z" style="fill:#dbdbdb"/></g><path d="M400.71,271.82a3,3,0,0,0-.47.35,2.17,2.17,0,0,0,.49.37,4.68,4.68,0,0,0,4.25,0,2.24,2.24,0,0,0,.47-.36,2.31,2.31,0,0,0-.48-.36A4.7,4.7,0,0,0,400.71,271.82Z" style="fill:#513b38"/><path d="M429.42,381.89c-1.74.19-3.48-1.41-5.29-1.41-2.68,0-3,3.38-.87,4.42s5,3.18,7.25,4.6c3,1.85,4.84,0,4.84,0,1-.88,0-6.13,0-6.13S431.15,381.69,429.42,381.89Z" style="fill:#7a7a7a"/><path d="M407.43,389.07a15.34,15.34,0,0,1-3.79.14c-1.19-.12-2.83-.42-3.59-.5-2.29-.25-3.28,1.13-2.13,3.13.92,1.6,3.78,2,5.05,2.44s3.72,1.45,5,1.83,3.91,0,4.34-2.16a6.75,6.75,0,0,0,0-3.43C411.92,389.61,407.43,389.07,407.43,389.07Z" style="fill:#7a7a7a"/><path d="M408.48,321.86c-1.16,11.7-2.07,21.81-2.15,33.57-.05,6.79-.35,30.29.16,34.89.17,1.55,5.72,2.39,6,.69.81-5.29,3.19-16.75,3.36-22.1.41-13.48,3.24-24.49,6.05-38.29.87-4.3,2.58-9-.29-13C417.92,312.42,409.15,315.62,408.48,321.86Z" style="fill:#004169"/><path d="M435.8,326.18c.26-4,.57-6.69-2.74-9.74-4.69-4.33-12.38-.3-11.63,6,1.23,9.83,2.4,19.69,4,29.48.95,5.81,1.68,11.66,2.48,17.5.63,4.59.73,9.63,1.92,14.11.56,2.1,5.67,3.06,5.67.35,0-6.12,1.12-16.24.77-22.35C435.66,350.73,434.9,339.84,435.8,326.18Z" style="fill:#004169"/><path d="M428.63,270.72c-.68,2.33,1,5.29,1.81,7.38,1.73,4.6,3,8.57,4.39,13.3a39.37,39.37,0,0,1-8.81.49s-2.19.64-2.91,2c-3.39,6.26,18.85,6.24,20.49,1.92,1.33-3.48-4.74-22.61-6.73-26A4.54,4.54,0,0,0,428.63,270.72Z" style="fill:#1c2d36"/><path d="M433.23,272.78a3.54,3.54,0,0,1,.72-5.12,4.43,4.43,0,0,0-5.32,3.06c-.68,2.33,1,5.29,1.81,7.38,1.73,4.6,3,8.57,4.39,13.3a39.37,39.37,0,0,1-8.81.49s-2.19.64-2.91,2c-2.54,4.69,9.28,5.85,16.08,4.33-.43-4.64-.17-9.41-1.39-13.92C436.78,280.48,435.75,275.86,433.23,272.78Z" style="opacity:0.05"/><path d="M411,307.91s-3.44,15.25-2.49,18.16c3,9.19,23.75,4.46,25.41,1.91s2.14-6.86,2.34-10c.31-4.74-1.56-11.48-2.39-13.71C431.16,297.13,411,307.91,411,307.91Z" style="fill:#004169"/><path d="M437.94,273.93c-.95-5-2.76-7.9-4.92-8.66a22.18,22.18,0,0,0-9.31-1.12c-2.13.29-7.83,1.28-9.7,3.59-.84,1-1.06,5.26-2.37,8.12-1.87,4.09-3.31,7.31-3.14,8.39.85,5.57,5.05,4.93,4.78,6.32-.74,3.83-4.19,24.08-4.19,24.08s.52,3.12,10.17,4.14c5.26.56,15.64-2.81,16.89-4.77,0,0-1.44-11.17-1.6-13.54C434,292.26,438.83,278.52,437.94,273.93Z" style="fill:#1c2d36"/><path d="M415.84,258.05c-.06,4.19,2.82,6.06,6.8,6.11,0,0,7.39-2.2,7.44-6.32l.92-7.61-15-2.74Z" style="fill:#efb19b"/><path d="M404.53,274.88a9.17,9.17,0,0,0-1.25.93s-2,.38-2.66-.08a3.27,3.27,0,0,1-1.26-2.68l-.14-1.52a6.05,6.05,0,0,0-1.53,3.19,17,17,0,0,0-.29,2,14,14,0,0,0,.29,3.26s.77,1.1,3.17.15a9.25,9.25,0,0,0,2.69-2.31c.61-.61,2.3-2.51,2.3-2.51S405.6,274.24,404.53,274.88Z" style="fill:#efb19b"/><path d="M418.55,267.21a4.77,4.77,0,0,0-6,3.06.14.14,0,0,0,0,.07l0,.08-.11.37c-.08.26-.2.64-.36,1.12-.31,1-.77,2.39-1.4,4s-1.36,3.58-2.26,5.57a40.46,40.46,0,0,1-3.14,5.76c-.09.14-.18.27-.28.4l.09.18a26.57,26.57,0,0,0,1.41,2.62l0,.05a1.51,1.51,0,0,1,.24.26c.07.1,0,.09,0,.07a1.55,1.55,0,0,1-.26-.33h0a3,3,0,0,0-1.07-.58,3.4,3.4,0,0,0-1.35-.12,3.61,3.61,0,0,0-1.16.34l.05,0c.08,0-.7.39-.37.2h0l0,0,.06-.05.23-.2c.16-.13.31-.3.47-.45a15,15,0,0,0,1.57-1.92c-.4-.85-.79-1.67-1.13-2.45-.73-1.66-1.33-3.07-1.73-4.05l-.61-1.54,0-.07a2,2,0,0,0-3.94.84s0,.17,0,.48,0,.77.1,1.34c.1,1.15.29,2.77.65,4.7.19,1,.4,2,.7,3.12a25.08,25.08,0,0,0,1.17,3.63,8.85,8.85,0,0,0,.58,1.15,6.49,6.49,0,0,0,.55.79,4.63,4.63,0,0,0,.59.59,4.05,4.05,0,0,0,1.46.8,4.68,4.68,0,0,0,.69.14,4.31,4.31,0,0,0,.88,0,4.09,4.09,0,0,0,1.28-.37l.05,0,.4-.23,0,0,.07,0,.12-.08.52-.33c.34-.23.64-.47,1-.71a22.92,22.92,0,0,0,3.24-3.12,38.5,38.5,0,0,0,2.54-3.36c.76-1.12,1.45-2.24,2.07-3.34,1.24-2.2,2.24-4.29,3-6.11s1.38-3.35,1.78-4.44l.44-1.29.16-.49A4.75,4.75,0,0,0,418.55,267.21Z" style="fill:#1c2d36"/><path d="M405,287.87l-.09-.18a15,15,0,0,1-1.57,1.92c-.16.15-.31.32-.47.45l-.23.2-.06.05,0,0h0c-.33.19.45-.25.37-.2l-.05,0a3.61,3.61,0,0,1,1.16-.34,3.4,3.4,0,0,1,1.35.12,3,3,0,0,1,1.07.58h0l0-.05A26.57,26.57,0,0,1,405,287.87Z" style="fill:#1c2d36"/><path d="M419.5,242.35c-3.29,1.39-8.49,4.64-3.57,8.16,0,0,2,.53,2,3.74s3.52,21.49,6.53,22.59c8.83,3.21,11.81-2.84,11.81-2.84s.36-7.83-4.95-27.05C429.73,241.24,421.81,241.37,419.5,242.35Z" style="fill:#5e331d"/><path d="M352.72,167.35c-.81,0-1.63,0-2.46.07-18.88,1.15-34.33,16.11-35.17,34.06a34.12,34.12,0,0,0,4.71,19,93.91,93.91,0,0,1,10.62,25.21c.75,3,1.53,6.16,2.33,9.3l.06.19c.34,3.37,2.7,6.46,6.63,8.62a28.21,28.21,0,0,0,13.33,3.08h0a28,28,0,0,0,13.31-3.09c4.48-2.47,6.88-6.17,6.58-10,.8-2.89,1.57-5.79,2.31-8.62a94,94,0,0,1,10.57-24.48,34.37,34.37,0,0,0,4.85-17.55C390.4,183.39,373.5,167.35,352.72,167.35Z" style="fill:#e8fffe;opacity:0.6000000000000001"/><path d="M364.24,253c-6-3.45-15.62-3.45-21.56,0s-5.9,9,.07,12.49,15.63,3.45,21.56,0S370.22,256.43,364.24,253Z" style="fill:#004169"/><path d="M364.24,262.81c-6-3.45-15.62-3.45-21.56,0s-5.9,9,.07,12.49,15.63,3.45,21.56,0S370.22,266.26,364.24,262.81Z" style="fill:#004169"/><rect x="338.18" y="258.76" width="30.65" height="10.52" style="fill:#004169"/><path d="M369.21,259.29a1,1,0,0,0-1,.89c-.1,1.92-1.54,3.76-4.05,5.18-5.83,3.29-15.34,3.29-21.2,0-2.53-1.42-4-3.26-4.12-5.19a1,1,0,0,0-1.94.12c.17,2.58,2,5,5.09,6.71a26.25,26.25,0,0,0,23.15,0c3.09-1.75,4.88-4.14,5-6.72A1,1,0,0,0,369.21,259.29Z" style="fill:#225d80"/><path d="M347.66,276.82a5,5,0,0,0,5,5H354a5,5,0,0,0,5-5v-1.15H347.66Z" style="fill:#004169"/><path d="M369.21,264a1,1,0,0,0-1,.9c-.1,1.92-1.54,3.75-4.05,5.17-5.83,3.29-15.34,3.29-21.2,0-2.53-1.42-4-3.26-4.12-5.19a1,1,0,0,0-1.94.13c.17,2.57,2,5,5.09,6.7a26.25,26.25,0,0,0,23.15,0c3.09-1.75,4.88-4.14,5-6.71A1,1,0,0,0,369.21,264Z" style="fill:#225d80"/><path d="M369.21,268.75a1,1,0,0,0-1,.9c-.1,1.92-1.54,3.76-4.05,5.17-5.83,3.29-15.34,3.29-21.2,0-2.53-1.42-4-3.26-4.12-5.18a1,1,0,0,0-1.94.12c.17,2.57,2,5,5.09,6.7a26.16,26.16,0,0,0,23.15,0c3.09-1.75,4.88-4.13,5-6.71A1,1,0,0,0,369.21,268.75Z" style="fill:#225d80"/><path d="M350.68,173.79a31.2,31.2,0,0,0-25.22,46.29,98.46,98.46,0,0,1,10.16,25.41c.68,2.95,1.4,6,2.14,9h.12c-.09,2.27,1.36,4.57,4.37,6.31,5.82,3.36,15.23,3.36,21,0,3.26-1.9,4.68-4.46,4.24-6.94.79-3,1.56-6,2.29-9a98.08,98.08,0,0,1,10.11-24.68,31.2,31.2,0,0,0-29.23-46.43Z" style="fill:#f9ea66"/><path d="M351,176.88c-13.64.91-24.63,12.63-25.24,26.88a29.22,29.22,0,0,0,3.38,15,90.93,90.93,0,0,1,8.8,23c.6,2.66,1.22,5.4,1.86,8.15h.1c-.07,2.06,1.18,4.13,3.79,5.71a16.67,16.67,0,0,0,6.58,2.12c-3.79-5.31-5.17-12.09-5.2-19.21,0-11.4.71-23.62,5.49-34a45.41,45.41,0,0,1,19.66-21.05A26.25,26.25,0,0,0,351,176.88Z" style="fill:#fff;opacity:0.4"/><path d="M253.46,276.25c0-.22,0-.49,0,.07A.17.17,0,0,0,253.46,276.25Z" style="fill:#d5363b"/><path d="M253.45,276.38v0Z" style="fill:#d5363b"/><path d="M253.45,276.38v-.13a.17.17,0,0,1,0,.07Z" style="fill:#d5363b"/><path d="M270.26,278.49c-1.79-.65-4.06-1.09-5.68-2.08-1.27-.78-1.22-.52-.59-2.14.48-1.21,1-2.41,1.54-3.6,1.77-3.93,3.76-7.75,5.65-11.62,1.35-2.78,1.87-5.85-.8-8.12-3-2.59-7.13-1.24-8.92,2A78.35,78.35,0,0,0,257,263.46c-1.53,4.07-3.21,8.41-3.56,12.79v.13c-.33,5.63,2.85,5.28,8.6,7,2.77.83,7.59,2.18,10.4,1.07a2.78,2.78,0,0,0,.77-4.75A9.77,9.77,0,0,0,270.26,278.49Z" style="fill:#d5363b"/><path d="M270.26,278.49c-1.79-.65-4.06-1.09-5.68-2.08-1.27-.78-1.22-.52-.59-2.14.48-1.21,1-2.41,1.54-3.6,1.77-3.93,3.76-7.75,5.65-11.62,1.35-2.78,1.87-5.85-.8-8.12s-6.4-1.45-8.38,1.18a2,2,0,0,1,1.8,2.42A109.92,109.92,0,0,0,261,283.1l1,.3c2.77.83,7.59,2.18,10.4,1.07a2.78,2.78,0,0,0,.77-4.75A9.77,9.77,0,0,0,270.26,278.49Z" style="opacity:0.1"/><path d="M323.46,258.23s-6.59,6-7.75,8.71c-1.73,4,4.26,2.92,4.26,2.92l.63.58a16.86,16.86,0,0,0,3.06-2,9.78,9.78,0,0,0-.27-3.73c-.27-.72-2.21-1.56-2.21-1.56s1.47-1.88,2.54-3.19S323.46,258.23,323.46,258.23Z" style="fill:#f4ae9e"/><path d="M298.44,375.4c-.87,0-2.76.06-4.13,0a7.89,7.89,0,0,1-3.62-1s-5.83-.44-6.42.51-.48,3.49-.42,4.47c.16,2.47,3.16,3.32,4.55,3.1s4.33-1,5.91-1.3,4.78-.33,6.06-2C302,377.18,301.06,375.47,298.44,375.4Z" style="fill:#1c1c1c"/><path d="M274.18,366.83a71.74,71.74,0,0,1-7.34.44s-6,.44-6.11,1.79c0,0-.82,3-.82,3.35,0,3,3.37,3.2,4.66,2.71s3.85-2.18,5.74-2.59a11.75,11.75,0,0,0,5.94-2.31C278,368.94,276.3,366.6,274.18,366.83Z" style="fill:#1c1c1c"/><path d="M272.74,305.55c0,.07,0-.1,0,0Z" style="fill:#6c6c6c"/><path d="M272.74,305.55Z" style="fill:#6c6c6c"/><path d="M272.74,305.55h0S272.75,305.56,272.74,305.55Z" style="fill:#6c6c6c"/><polygon points="272.74 305.55 272.74 305.55 272.74 305.55 272.74 305.55" style="fill:#6c6c6c"/><path d="M290.14,302.87c-.31-2.83-.27-.84-1.24-3.54a8.69,8.69,0,0,0-13.81-3.71A9.47,9.47,0,0,0,272,302.2a8.75,8.75,0,0,0,.61,4.35,13.54,13.54,0,0,0,1.23,2.08,8.34,8.34,0,0,1,.76,2.17c.44,1.53.86,3.08,1.25,4.63.84,3.32,3.15,18.82,3.39,20.51.5,3.49.94,7,1.39,10.49q1.32,10.21,2.51,20.43c.31,2.74.56,5.49.9,8.23a3.57,3.57,0,0,0,4.79,3.09c2.77-1.08,2.22-4.16,2.19-6.52-.05-3.16-.05-6.32,0-9.48,0-6.8.25-13.59.47-20.38,0-1.19.05-2.38,0-3.57,0-3.25,0-16.66-.11-18.4C291.1,316.45,290.51,306.23,290.14,302.87Zm-17.4,2.68h0s-.06-.21,0-.2c.23.09.47,1.07.53,1.25a5.89,5.89,0,0,1-.49-1.05S272.75,305.58,272.74,305.55Z" style="fill:#6c6c6c"/><path d="M275,293a8.82,8.82,0,0,0-12.25,4.1,8.48,8.48,0,0,0-.74,3.91q.34,8.32.47,16.67c0,1.65-.56,16.62-.61,20-.1,6.72-.31,13.44-.57,20.16-.12,3-.25,6.05-.43,9.07a9.87,9.87,0,0,0,0,2.82c.29,1.16,6.53,2.68,6.83-1.31.22-2.87.92-5.69,1.41-8.52,1.13-6.61,2.33-13.21,3.53-19.8.42-2.3.86-4.6,1.22-6.9.26-1.66,4-22.2,5.05-28.47.37-2.1.86-4.14.31-6.27A8.81,8.81,0,0,0,275,293Z" style="fill:#6c6c6c"/><path d="M263.77,291.88c-2.51,6.68-2.11,14.06.17,15.77s10.8,7.41,14.8,8.07c1.92.32,10.06-2.28,11.19-5.26,1.29-3.44-.49-12-.49-12S266.27,285.19,263.77,291.88Z" style="fill:#6c6c6c"/><path d="M291,257c.52-2.39-5.07-7.21-12.42-9.68-5.34-1.79-10,.43-12.86,1.5-2,.75-3.86,1.81-4.28,6.73-.6,7.18,2.31,24.61,1.93,30.32-.31,4.81-.94,7-1.28,11.83-.35,5.12,13,8.67,17.93,8.67a17.82,17.82,0,0,0,10.16-3.49,92.05,92.05,0,0,0-1-9.84c-.25-1.37-.38-15.39,2.08-22.66C292.49,266.7,290.23,260.36,291,257Z" style="fill:#d5363b"/><path d="M272.32,247.92c0,2.57,8.28,3.78,8.28,1.2l1-8.82H273Z" style="fill:#f4ae9e"/><path d="M272.44,246l-.34.78c-.35.82-.82,1.81-.23,2.47,2.53,2.83,9.06,2.24,10.76-.29l-1.78-2C279.16,248.6,273.2,248.65,272.44,246Z" style="fill:#fff"/><path d="M270.34,240.08c0,3.9,6.93,6.12,6.93,6.12,3.76,0,6.52-1.68,6.55-5.65l.07-10-14.28,2.31Z" style="fill:#f4ae9e"/><path d="M286.53,226.64c-1.95-.5-4-1.09-5.88-1.63-3-.88-9.83-.68-11.27,4.74-2.36,8.89,2.2,14.14,2.2,14.14s2.95,2.29,4.7.94c2.39-1.86,5.62-4.88,5.64-7.92s1.95-3.5,1.95-3.5C288,231.48,287,226.75,286.53,226.64Z" style="fill:#1c1c1c"/><path d="M280.05,237.39c-.23,1.71.89,3.6,2.27,3l0-3.3S280.35,235.08,280.05,237.39Z" style="fill:#f4ae9e"/><path d="M283,253.37l-.24.11Z" style="fill:#d5363b"/><path d="M282.8,253.48l-.16.08Z" style="fill:#d5363b"/><path d="M283.43,253.2l.59-.27-.59.27Z" style="fill:#d5363b"/><path d="M284,252.93l.2-.09Z" style="fill:#d5363b"/><path d="M284.22,252.84Z" style="fill:#d5363b"/><path d="M283.22,253.29l-.18.08Z" style="fill:#d5363b"/><path d="M315.15,266.75c-2.11.7-11.74,7.21-13.95,7.75-1.39.34-7.6-12.89-9.61-17.18-1.51-3.2-4.33-5.86-8.16-4.12h0c-5.11,2.33-3,7.4-1.08,11a86.8,86.8,0,0,0,8.6,13.62c2.52,3.16,6.13,6.07,8.22,6.53,3.08.67,10.43-4.31,13.31-7.37,1.22-1.3,4.47-4.76,5.56-7.1C318.51,268.91,316.42,266.33,315.15,266.75Z" style="fill:#d5363b"/><path d="M282.64,253.56Z" style="fill:#d5363b"/><polygon points="283.43 253.2 283.43 253.2 283.43 253.2 283.43 253.2" style="fill:#d5363b"/><path d="M283.43,253.2h0l-.21.09Z" style="fill:#d5363b"/><path d="M493,329.48h-4.85a22.43,22.43,0,0,1-.13,3.66c-.48,1.48-4.83,5.8-5.57,6.41a8.16,8.16,0,0,0-2.82,3c-.78,1.41-.29,1.88-.29,1.88a8.34,8.34,0,0,0,5.48,0c2.34-.77,3-3.1,4.32-3.69.73-.33,2.64-.89,3.17-1.09,1.67-.63,2-1.54,2-1.86a11.58,11.58,0,0,0-.64-3.65A20.31,20.31,0,0,1,493,329.48Z" style="fill:#704f40"/><path d="M491.49,337c-3.66,2.43-5.66,3.74-7.33,3.71a7.19,7.19,0,0,1-2.42-.69,7,7,0,0,0-2.13,2.45c-.78,1.41-.29,1.88-.29,1.88a8.34,8.34,0,0,0,5.48,0c2.34-.77,3-3.1,4.32-3.69.73-.33,2.64-.89,3.17-1.09,1.67-.63,2-1.54,2-1.86a11.51,11.51,0,0,0-.57-3.44C493.79,335.41,493.07,336,491.49,337Z" style="fill:#1c2d36"/><path d="M519.1,338.61c-.05-.45-.61-3.94-.61-3.94l-5,1.14a31.09,31.09,0,0,1,.27,4.27,67.63,67.63,0,0,1-4.55,6.17c-.14.16-1.67,1.54-2.32,2.36-.37.48-.95,1.89-.22,2.61.4.39,2.66.61,4,.46a7.08,7.08,0,0,0,5-2.73,22.05,22.05,0,0,1,3-3.56c.72-.67,1.64-1.66,1.64-2.42a6.1,6.1,0,0,0-.44-2.58A10,10,0,0,1,519.1,338.61Z" style="fill:#704f40"/><path d="M519.68,340.16c-.06,1.85-3.78,5.52-5.87,7a4.71,4.71,0,0,1-3.62.65c-.74-.27-1.4-.68-1.17-1.41a28.85,28.85,0,0,0-2.16,2.21c-.37.48-.95,1.89-.22,2.61.4.39,2.66.61,4,.46a7.08,7.08,0,0,0,5-2.73,22.05,22.05,0,0,1,3-3.56c.72-.67,1.64-1.66,1.64-2.42a6.1,6.1,0,0,0-.44-2.58C519.75,340.32,519.71,340.24,519.68,340.16Z" style="fill:#1c2d36"/><path d="M488.37,261.78c-5.13,2.54-4.19,9.27-4.07,14,.32,12.6.23,12.37.87,25,.29,5.88,2,25,2.5,30.9.13,1.58,5.11,1.54,5.44-.51.06-.34,1.25-10.27,1.7-15.36s-.65-8.68,0-13.61c1.6-11.93,2.26-20.83,4.21-32.24C500,264.26,493.53,259.23,488.37,261.78Z" style="fill:#003842"/><path d="M514,304.11c-1.51-15.43-1.91-22.72-2.77-34.93a7.34,7.34,0,0,0-12.7-4.35c-3.42,3.82-1.07,9.91-.31,14.34a254.41,254.41,0,0,0,7.3,30.9c1.88,6.36,5.44,19.84,7.4,26.17.58,1.86,6.29.59,6.07-1-.39-2.87-1.56-16-2-18.86C516.1,309.67,514.66,310.84,514,304.11Z" style="fill:#003842"/><path d="M508.26,255.34c-2,.31-4.05.38-6.05.5-5,.29-10.84.54-15.84.38-.31,0-1.55,5-1.72,6.3-.66,5.2-.63,10-.12,10.9,4,6.74,23.15,9.2,25.11,4,3.9-10.28-1.42-19.33-1.42-21C508.22,256.13,508.24,255.77,508.26,255.34Z" style="fill:#003842"/><path d="M499.4,216.69c-9.39.12-13.82,2.32-14.14,9.75-.13,2.81-.88,12.28.17,17.19a25.89,25.89,0,0,1,.92,6.66c-.09,5.42-2.06,13.62-2.54,15.16.38,1.36,2.88,5.38,18.74,4.37,2.84-.18,8.46-2.11,8.76-5,0,0-1.75-8.39-1.84-9.45-3.09-8.62.06-13.29,2.61-20.55,2.33-6.64,1.84-10.21-.55-12.57C507.55,218.28,503.64,216.63,499.4,216.69Z" style="fill:#d5363b"/><path d="M469.85,236.69c-1.59,1.4-19.6,8.91-21.39,9.88a2,2,0,0,0,.68,3.77c1.87.1,20.12-4.52,22.69-5.34,4.69-1.48,12.63-9.42,17.71-13.86-1.48-3-2.62-6.21-4.14-9.21C479.8,226.86,472.75,234.15,469.85,236.69Z" style="fill:#704f40"/><path d="M472.6,233.47c2.78,2.31,5.9,7.73,6.21,8.08,4-3.11,8.73-7.31,11.53-9.77-1.48-3-.49-9.53-2-12.53C485.33,221.89,477,229.46,472.6,233.47Z" style="fill:#d5363b"/><path d="M496.8,195.59l5.57,11s6.49-2.77.7-10.09C499.72,192.3,496.8,195.59,496.8,195.59Z" style="fill:#1c1c1c"/><path d="M500.57,212.36l-7.77.49s.09,2.41,0,5c0,.82-2.44,3.47-1.18,5.46a3.5,3.5,0,0,0,3.59,1.43,8,8,0,0,0,6.52-7.82A7.58,7.58,0,0,1,500.57,212.36Z" style="fill:#704f40"/><path d="M500.49,213.23l-.37-.84-6.09.42a1.44,1.44,0,0,0-1.31,1.75c.26,1.15.62,2.66.91,3.66a1.44,1.44,0,0,0,1.64,1c1.41-.25,3.91-1.87,5.47-5.8C500.73,213.35,500.46,213.4,500.49,213.23Z" style="fill:#1d1d1b;opacity:0.1"/><path d="M488.88,210.11c.54,4.23,2.83,8.08,6.76,6.48a9.94,9.94,0,0,0,7.07-9.39l.12-6.06-14.71-.74Z" style="fill:#704f40"/><path d="M498.48,196a9.13,9.13,0,0,0-9.74,2.82c-1,1.29-1.74,3.52-.43,4.26,0,0,1.91-2.32,8.22,2,.7.47,1,2.27,2.52,1.32.91-.55.6,4.53.6,4.53l1.05,2.24a13.89,13.89,0,0,0,2.78-6.84C503.87,198.87,500.31,196.67,498.48,196Z" style="fill:#1c1c1c"/><path d="M499.92,206.1c-1.26.11-1.27.66-1.27.66l.66,3s.87.23,1.52-1.61C501.23,207,501.19,206,499.92,206.1Z" style="fill:#704f40"/><path d="M485.69,237.05a1.21,1.21,0,0,0-.91-.36L478,237c-.24,0-.39.1-.42.21l-.26.66c0-.11.17-.2.41-.21l6.79-.26a1.19,1.19,0,0,1,.91.36l6.53,8.95a.23.23,0,0,1,.05.2l.27-.66a.26.26,0,0,0,0-.2Z" style="fill:#4b4b4b"/><path d="M485.42,237.71a1.19,1.19,0,0,0-.91-.36l-6.79.26c-.35,0-.51.2-.36.41l6.53,8.95a1.19,1.19,0,0,0,.91.36l6.79-.26c.35,0,.51-.2.36-.41Z" style="fill:#4b4b4b"/><path d="M484.36,245.24c-.7.87-1.24,1.43-.64,2.09.93,1,3.27,2.68,4.48,2.79.63.06,3.39-2.71,3.39-2.71a40.67,40.67,0,0,0-4-3.36C487.07,243.73,485.05,244.38,484.36,245.24Z" style="fill:#704f40"/><path d="M488.73,239.85s-1,.08-.54,1.18a7.57,7.57,0,0,1,.59,1.67c.19.88-1.23,1.69-1.08,2.31.22,1,3,3.22,3.41,2.43a4.75,4.75,0,0,0-.14-3.56C490.5,243.21,489.05,240.33,488.73,239.85Z" style="fill:#704f40"/><path d="M489.49,245h0l-.31-.19c-.1-.06-.22-.12-.35-.21l-.46-.3c-.33-.22-.71-.49-1.12-.8s-.82-.64-1.24-1c-.83-.7-1.64-1.43-2.23-2s-1-.94-1-.94a.53.53,0,0,0-.76.73h0s.39.41,1,1,1.39,1.36,2.23,2.09c.42.37.85.73,1.26,1.05s.8.63,1.15.87l.48.33a3.76,3.76,0,0,0,.38.24l.33.21h0a.63.63,0,0,0,.87-.23A.64.64,0,0,0,489.49,245Z" style="fill:#704f40"/><path d="M487.88,245.72l0,0-.31-.18c-.1-.06-.23-.13-.36-.22l-.46-.29c-.33-.23-.71-.5-1.11-.8s-.83-.64-1.24-1c-.84-.69-1.64-1.42-2.23-2s-1-1-1-1a.52.52,0,0,0-.73,0,.53.53,0,0,0,0,.74h0s.38.41,1,1,1.39,1.35,2.23,2.08c.42.37.85.73,1.26,1.06L486,246l.48.32.38.25.33.21h0a.64.64,0,0,0,.87-.22A.63.63,0,0,0,487.88,245.72Z" style="fill:#704f40"/><path d="M487.63,247.27l0,0-.31-.18c-.1-.07-.23-.13-.37-.22l-.46-.31-.54-.38c-.19-.14-.39-.28-.59-.44-.41-.31-.84-.66-1.26-1-.85-.71-1.67-1.46-2.27-2l-1-1a.53.53,0,0,0-.73,0,.54.54,0,0,0,0,.75h0s.39.42,1,1,1.42,1.38,2.27,2.13c.42.38.86.74,1.27,1.08.22.16.42.32.61.48l.56.41.49.34a3.79,3.79,0,0,0,.39.24l.34.22h0a.63.63,0,0,0,.65-1.09Z" style="fill:#704f40"/><path d="M486.9,247.94h0l-.25-.15c-.16-.08-.39-.22-.66-.39s-.28-.18-.43-.28l-.47-.33c-.33-.23-.67-.49-1-.76-.67-.53-1.31-1.11-1.77-1.55l-.55-.55-.19-.21,0,0a.53.53,0,0,0-.73,0,.54.54,0,0,0,0,.75l.21.23c.13.15.32.35.56.59a23.51,23.51,0,0,0,1.79,1.69c.34.29.7.57,1,.83l.49.36.45.31c.28.2.52.35.69.45l.27.16h0a.63.63,0,0,0,.87-.23A.64.64,0,0,0,486.9,247.94Z" style="fill:#704f40"/><path d="M515.94,241.29l-.06-1.19c0-.79-.1-1.6-.17-2.41l-.05-.6-.07-.6c0-.4-.09-.8-.13-1.2-.09-.79-.22-1.57-.33-2.32,0-.38-.12-.75-.18-1.11s-.13-.71-.2-1.06c-.11-.68-.27-1.35-.41-2-.07-.3-.14-.6-.2-.88s-.12-.55-.18-.77c-.12-.45-.23-.84-.31-1.16l-.27-1-.07-.22a4.18,4.18,0,0,0-7.95,2.58l.33,1,.37,1.15c.08.23.14.44.2.67s.13.46.2.71c.14.5.3,1,.44,1.63.07.3.15.61.22.92s.16.64.22,1c.13.66.29,1.34.41,2,.05.35.11.7.17,1.06l.09.53.08.53c.09.71.2,1.43.26,2.13,0,.35.08.7.11,1.05s.06.69.08,1c.07.68.08,1.33.12,1.94s0,1.2,0,1.74v.77c0,.24,0,.47,0,.68,0,.44,0,.8,0,1.11s0,.52,0,.68v.19l0,.22a3.49,3.49,0,0,0,6.95.7s0-.12.05-.35.06-.5.1-.87.08-.8.12-1.3c0-.25,0-.52.06-.8s0-.57,0-.87c0-.61.05-1.27.07-2s0-1.43,0-2.19C516,242.06,515.94,241.68,515.94,241.29Z" style="fill:#704f40"/><path d="M511.17,221.89c-1.18-1.43-1.93-.88-3.64-.16a4.32,4.32,0,0,0-2.49,4.9c.49,2.21,2.44,15.64,3.22,19.07.5,2.16,7,.86,8.47.13.38-.2-1.37-14.16-2.06-17.8C513.9,223.92,512.28,223.23,511.17,221.89Z" style="fill:#d5363b"/><path d="M510,247.75c-8.29.59-18.59-.5-20.5-1.24s-4.07.94-2.57,2.63c1.15,1.31,5.09,3,11.52,4.07a63.55,63.55,0,0,0,13.83,1,3.3,3.3,0,0,0,2.7-4.76C513.94,247.42,511.87,247.62,510,247.75Z" style="fill:#704f40"/><path d="M449.09,245.89c-3.12,0-11.86,3.91-11.86,3.91s-.14,1.5,1.61,1,4.22-1.14,4.22-1.14,0,2.27.59,2.84a10.46,10.46,0,0,0,3.55,1.85c.55,0,3.24-2.17,3.24-2.17l-.29-.86S453.78,245.9,449.09,245.89Z" style="fill:#704f40"/><path d="M193.55,309.84l2.15,25.53a2.19,2.19,0,0,0,0,.36h0c.2,1.58,1.35,3.13,3.44,4.34,4.62,2.67,12.09,2.67,16.68,0,2.6-1.51,3.72-3.55,3.36-5.53l2.2-24.7Z" style="fill:#a0a0a0"/><path d="M217,304.8a21,21,0,0,0-19,0c-2.4,1.4-3.71,3.21-3.71,5.11s1.34,3.73,3.77,5.14a21.08,21.08,0,0,0,19,0c2.4-1.4,3.71-3.21,3.71-5.1S219.4,306.2,217,304.8Z" style="fill:#47392f"/><path d="M217.3,304.21a21.74,21.74,0,0,0-19.7,0c-5.42,3.15-5.39,8.26.07,11.41a21.65,21.65,0,0,0,19.7,0C222.79,312.47,222.76,307.36,217.3,304.21Zm-.61,10.24a20.4,20.4,0,0,1-18.35,0c-2.21-1.28-3.43-2.9-3.43-4.56s1.19-3.24,3.37-4.51a20.4,20.4,0,0,1,18.35,0c2.21,1.28,3.43,2.9,3.43,4.56S218.87,313.19,216.69,314.45Z" style="fill:#a0a0a0"/><path d="M221.1,278.21c-5.53,11.16-11.29,36-11.29,36s9.29-17.65,12.18-25,5.09-22.15,5.09-22.15S226.64,267.05,221.1,278.21Z" style="fill:#34954a"/><path d="M197.76,278.29c-.42,23.51,8.57,33.06,8.57,33.06,4.23-9-5.54-66.27-5.54-66.27S198.19,254.79,197.76,278.29Z" style="fill:#34954a"/><path d="M209.41,255c-.65-16-3.58-19-2.84-16.21s-2.37,19.24-2.82,38a101,101,0,0,0,5.66,34.65s1.78-9.91,1.63-28.8C211,271.73,210.06,271,209.41,255Z" style="fill:#41ba5d"/><path d="M217.22,248.44s-4.83,9.21-5.78,23.85-2.55,32.83-.12,42.19a71.9,71.9,0,0,1,3.14-16.81c2.63-7.57,3.48-27.94,3.09-34.58S217.22,248.44,217.22,248.44Z" style="fill:#41ba5d"/><path d="M187.89,269.74s4,30,14.68,41.61c0,0-.45-17.34-4.47-23.94S187.89,269.74,187.89,269.74Z" style="fill:#41ba5d"/><path d="M597.19,331l-4.73-3.19L366.7,459,0,244.56v6.61L365.21,464.9a2.93,2.93,0,0,0,3,0L591.3,335.29Z" style="fill:#fff"/></g></svg>