<svg xmlns="http://www.w3.org/2000/svg" xmlns:xlink="http://www.w3.org/1999/xlink" width="775.1" height="570.6" viewBox="0 0 775.1 570.6"><defs><clipPath id="a"><path d="M496.53,270.2l1.52.88a.19.19,0,0,1,.08.17l-1.53-.89A.17.17,0,0,0,496.53,270.2Z" style="fill:none"/></clipPath><clipPath id="b"><path d="M275.07,285.39l.42.24a.47.47,0,0,0-.44,0l-.42-.24A.42.42,0,0,1,275.07,285.39Z" style="fill:none"/></clipPath><clipPath id="c"><path d="M266.93,295.37l-.42-.24a.42.42,0,0,1-.18-.39l.42.25A.4.4,0,0,0,266.93,295.37Z" style="fill:none"/></clipPath><clipPath id="d"><path d="M266.74,291.17l-.42-.24a1.32,1.32,0,0,1,.61-1.05l.42.24A1.38,1.38,0,0,0,266.74,291.17Z" style="fill:none"/></clipPath></defs><g style="opacity:0.6000000000000001"><polygon points="405.59 570.6 774.66 356.51 775.1 286.35 405.59 499.19 405.59 570.6" style="fill:#cae0e3"/></g><g style="opacity:0.6000000000000001"><polygon points="1.48 264.47 405.59 499.19 775.1 286.35 365.89 52.71 1.48 264.47" style="fill:#fff"/></g><path d="M611.39,247.13c-.29-3.95-.61-8.16-.92-12.38l-.12-1.58-.05-.78,0-.7c0-1-.06-2-.08-3,0-2-.06-4.05-.07-6,0-3.94,0-7.61,0-10.76,0-6.3,0-10.51,0-10.51v0a7.26,7.26,0,0,0,0-.8,7.59,7.59,0,0,0-15.09,1.66s.12,1.06.32,2.91.49,4.48.89,7.64.84,6.85,1.41,10.81q.42,3,.9,6.14c.17,1.06.33,2.11.53,3.23l.16.87.15.77.31,1.56L602,248.34c.79,3.88,1.52,7.51,2.15,10.62l2.17,10.35v0a3.27,3.27,0,0,0,6.47-.88s-.26-4.21-.66-10.54C611.92,254.77,611.66,251.08,611.39,247.13Z" style="fill:#005369"/><path d="M591.5,193.73a6.72,6.72,0,0,0-7,6.44s0,1-.1,2.66-.13,4-.15,6.86,0,6.13,0,9.65c0,1.76.06,3.59.09,5.44,0,.93,0,1.88.05,2.83l.09,2.87c.13,3.76.29,7.49.45,11s.34,6.76.48,9.56l.55,9.32a2.9,2.9,0,0,0,5.79,0l2.2-29.7c.08-.9.15-1.8.23-2.7,0-.45.08-.91.13-1.37s.11-.88.16-1.32c.24-1.81.47-3.59.69-5.31.48-3.43.92-6.64,1.3-9.38s.73-5,1-6.59.39-2.44.39-2.44l0-.13c0-.24.06-.49.07-.74A6.72,6.72,0,0,0,591.5,193.73Z" style="fill:#005369"/><path d="M585.34,190.84a45.45,45.45,0,0,0-1.69,13.91c0,2.48.14,18.14,1,18.75,3.89,2.72,23.7,2.23,26.11.75,1.83-1.12,1.83-28.05-2.21-31.86C603.83,187.94,585.34,190.84,585.34,190.84Z" style="fill:#001a20"/><path d="M587,260.29c-1.13.69-4.72,4.25-6.24,5.46-1.7,1.34-2.83,1.95-3.13,2.76-.48,1.3.15,1.54,1.41,2a7.39,7.39,0,0,0,5.51-1.08,14.29,14.29,0,0,1,4.21-2.09s1.79-.47,2.35-.71a2.23,2.23,0,0,0,1.24-2.1s0-3.12-1-4A4.44,4.44,0,0,0,587,260.29Z" style="fill:#a0a0a0"/><path d="M608.34,268.76s-2.94,4.31-4.14,5.57c-3.36,3.52-2.72,3.09-2.75,4a2.07,2.07,0,0,0,2,2.18,5.35,5.35,0,0,0,4.1-1.26l5.54-4.59a2.44,2.44,0,0,0,1.22-2.07,8.68,8.68,0,0,0-1-4C611.16,266.06,608.34,268.76,608.34,268.76Z" style="fill:#a0a0a0"/><path d="M598.68,146.65c-3.28-.53-2.4-.54-7.84.42-2.88.51-5.67,3.83-5.72,7.93,0,2,1.22,5-.78,10-2.22,5.56,1.63,7.12,1.49,9.05-.34,4.61-1.37,21.18-1.37,21.18s15.57,6.85,25.39-1.06c0,0-2.39-7-2.35-10.57,0-4.17,3.28-18.61,3.28-18.61s4.34-8.76-.38-13.28C609,150.34,605.39,147.73,598.68,146.65Z" style="fill:#00414d"/><path d="M610,167.2l-.14,0a.8.8,0,0,1,0,.15,28.88,28.88,0,0,1-1.24,3c-.16.37-.32.74-.49,1.1a21.85,21.85,0,0,0-1,2.66,16.53,16.53,0,0,1-2.61,5.74,13.05,13.05,0,0,1-3.65,3.11c-.84,1-1.72,1.94-2.64,2.87-1.43,1.46-2.57,1.59-.35,2.36,0,0,0,0,.06,0a27.69,27.69,0,0,0,10.17-.73,19,19,0,0,1-.51-3.91c0-3.16,1.89-12.2,2.8-16.41A1.86,1.86,0,0,1,610,167.2Z" style="fill:#003640"/><path d="M613.18,176.53a4.58,4.58,0,0,1,.14.53l.1.41c0,.07-.06-.54,0-.27h0v.13s0,0,0,0a2.89,2.89,0,0,1,0-.48l0-.19a1.6,1.6,0,0,1,0-.21,2,2,0,0,1,.12-.31l0,0A5.11,5.11,0,0,1,613.18,176.53Z" style="fill:#00414d"/><path d="M621,176.64v-.12c0,.26,0-.36,0-.31l-.09-.6c-.06-.4-.14-.79-.21-1.18a48.21,48.21,0,0,0-2.58-8.45c-.5-1.27-1-2.48-1.55-3.61s-1-2.17-1.52-3.14c-1-1.92-1.86-3.48-2.5-4.56-.32-.54-.59-1-.77-1.26l-.29-.46a4.23,4.23,0,0,0-7.29,4.3l0,.08s.31.58.86,1.58,1.36,2.49,2.29,4.27c.47.88,1,1.85,1.47,2.87s1,2.1,1.54,3.22,1,2.27,1.48,3.44a35.54,35.54,0,0,1,1.22,3.5c0,.1-6.24,4.13-8.05,5s-3.38,1.62-4.46,2.14l-1.69.8-.06,0a2.07,2.07,0,0,0-1.14,2.19,2,2,0,0,0,2.36,1.68l.52-.09,1.42-.26c1.23-.24,3-.61,5-1.18,1-.27,2.16-.6,3.34-1s2.44-.84,3.75-1.41a19.19,19.19,0,0,0,4.21-2.35,9.13,9.13,0,0,0,1.25-1.16,5.84,5.84,0,0,0,1.29-2.35,3.94,3.94,0,0,0,.1-.47,3.15,3.15,0,0,0,0-.32c0-.12,0-.24,0-.36v-.49Z" style="fill:#00414d"/><path d="M600.58,142.14c.46-3.24-6.2,1.76-6.2,1.76l.51,5.25a3.2,3.2,0,0,0,3.8,2.46c1.73-.37,3.86-2.77,3.49-4.5C602.18,147.11,600.24,144.54,600.58,142.14Z" style="fill:#e7a384"/><path d="M600.58,142.14c.46-3.24-6.2,1.76-6.2,1.76l.51,5.25v0a10,10,0,0,0,3.72-1.34,6,6,0,0,0,2.17-3.5A5.21,5.21,0,0,1,600.58,142.14Z" style="fill:#cb846d"/><path d="M590,141.89c.11,3.83,3.06,5.78,5.72,5.34,2.2-.37,6.58-2.81,6.56-6.06l.55-7-13.12-1.94Z" style="fill:#e7a384"/><path d="M602,127c-1.74-.87-8-2-11.09,1.32a7.62,7.62,0,0,0-2.12,7.4s1.89,1.3,7.48.5a3.29,3.29,0,0,1,3.77,2.12c.2.62.22,2.64.67,5.33.28,1.66.36,2,.36,2s5.75-1.15,6.07-5.62C607.66,132.74,603.73,127.82,602,127Z" style="fill:#1c1c1c"/><path d="M599.74,137.38a2.51,2.51,0,0,0-.51,1.11l.52,3.06c1.44.32,2.41-2.18,1.86-3.76C601.18,136.56,600.28,136.8,599.74,137.38Z" style="fill:#e7a384"/><path d="M592.77,179.65a1.09,1.09,0,0,0-.08-.15l0,0,0-.06,0-.05h0l-.06-.05-.06-.05,0,0h0l0,0,0,0-.05,0,0,0h0l0,0-.05,0,0,0-.06,0h0l-.05,0-.06,0,0,0h-.12l-.07,0h-.31l-7.37-.39a1,1,0,0,0-.25,0h-.21l-.06,0h0l0,0,0,0h0l0,0,0,0,0,0h0l0,0,0,0,0,0h0v0l0,0v0l-.19.54a.56.56,0,0,1,.05-.08h0a.24.24,0,0,1,.06-.08h0a.27.27,0,0,1,.08-.07h0l.09-.06h0l.11,0h0l.09,0h.34l7.37.4.23,0h0l.22,0h0l.22.08h0l.2.1h0l.17.11h0a.64.64,0,0,1,.15.13h0a.48.48,0,0,1,.09.11l0,0a1,1,0,0,1,.07.15l3.38,8.51a.47.47,0,0,1,0,.33l.19-.55a.48.48,0,0,0,0-.33Z" style="fill:#00343e"/><path d="M592.58,180.2a1.68,1.68,0,0,0-1.44-.83l-7.37-.4c-.63,0-1,.29-.84.71l3.37,8.52a1.76,1.76,0,0,0,1.45.83l7.37.39c.63,0,1-.29.84-.71Z" style="fill:#00242a"/><path d="M593.83,182.37a15.11,15.11,0,0,0,.59,1.48c.63.24.48.48.43.69-.1.42-1.67.45-1.67.45l.74,5.06a27,27,0,0,0,7.26-2.19,4.32,4.32,0,0,0-.66-4.27C599.79,182.54,595.7,182.25,593.83,182.37Z" style="fill:#e7a384"/><path d="M594.8,184.83s-.32.06-.83.1a16.08,16.08,0,0,1-1.89,0,17.2,17.2,0,0,1-2.73-.31.51.51,0,0,0-.59.37.5.5,0,0,0,.37.61h0a18.77,18.77,0,0,0,2.89.44,17.74,17.74,0,0,0,2,0A9,9,0,0,0,595,186h0a.61.61,0,0,0-.21-1.21Z" style="fill:#e7a384"/><path d="M594.13,186.18h0l-.2.05-.58.09a12.39,12.39,0,0,1-1.8.07,14.07,14.07,0,0,1-1.81-.2c-.49-.09-.82-.18-.82-.18a.5.5,0,0,0-.27,1h0s.35.11.87.22a14.66,14.66,0,0,0,2,.3,13.16,13.16,0,0,0,2,0,6.18,6.18,0,0,0,.67-.08l.27-.05h0a.62.62,0,0,0-.27-1.2Z" style="fill:#e7a384"/><path d="M594.47,187.54h0l-.2,0-.57.09a11.19,11.19,0,0,1-1.81.07,12.49,12.49,0,0,1-1.81-.2c-.49-.09-.81-.17-.81-.17a.5.5,0,0,0-.61.34.5.5,0,0,0,.34.62h0s.34.1.87.22a13.08,13.08,0,0,0,1.95.29,12,12,0,0,0,2,0l.67-.07.26,0h0a.61.61,0,0,0,.46-.73A.6.6,0,0,0,594.47,187.54Z" style="fill:#e7a384"/><path d="M595.11,188.68h0l-.19.05-.57.13a12.13,12.13,0,0,1-3.61.09c-.5-.05-.83-.11-.83-.11a.5.5,0,0,0-.58.37.52.52,0,0,0,.38.61h0s.35.08.88.16a13.38,13.38,0,0,0,2,.17,13,13,0,0,0,2-.12c.27,0,.5-.08.66-.12l.26-.06h0a.61.61,0,0,0-.33-1.17Z" style="fill:#e7a384"/><path d="M601.07,145.62a5.34,5.34,0,0,1-4.36,5.76l2.08,3.27s5.24-3.15,4.85-7.15Z" style="fill:#fff"/><path d="M594.65,147.28a5.91,5.91,0,0,1-1.38-.28,7.64,7.64,0,0,0,1.29,6.75l2.25-2.35C594.62,150.58,594.65,147.28,594.65,147.28Z" style="fill:#fff"/><g style="isolation:isolate"><polygon points="481.63 238.44 541.98 203.9 542.14 140.44 481.79 174.98 481.63 238.44" style="fill:#7c7c7c"/><polygon points="584.38 233.87 481.92 174.71 542.14 140.44 533.42 135.4 464.41 174.98 584.31 244.21 653.33 204.63 644.61 199.59 584.38 233.87" style="fill:#f0f0f0"/><polygon points="486.84 186.06 591.28 246.62 622.45 231.12 516.35 171.09 486.84 186.06" style="fill:#aaa"/><g style="isolation:isolate"><path d="M570.85,206.44l-22.8-13.16a1.29,1.29,0,0,0-1.18,0l-9.2,4.4a.36.36,0,0,0,0,.68l22.8,13.17a1.29,1.29,0,0,0,1.18,0l9.2-4.41C571.18,206.94,571.17,206.63,570.85,206.44Z" style="fill:#518ca1"/><path d="M570.85,207.12l-9.2,4.41a1.29,1.29,0,0,1-1.18,0l-22.8-13.17a.4.4,0,0,1-.24-.34v.76a.4.4,0,0,0,.24.34l22.8,13.17a1.29,1.29,0,0,0,1.18,0l9.2-4.95a.4.4,0,0,0,.24-.33v-.22A.4.4,0,0,1,570.85,207.12Z" style="fill:#00414d"/></g><path d="M547.88,194a.21.21,0,0,0-.17,0l-1.15.57s0,.07,0,.1l1.16.67a.23.23,0,0,0,.18,0l1.14-.57c.05,0,.05-.06,0-.09Z" style="fill:#00414d"/><path d="M549.39,194.85a.2.2,0,0,0-.17,0l-1.15.57c-.05,0,0,.06,0,.09l1.16.67a.23.23,0,0,0,.18,0l1.15-.57s0-.07,0-.1Z" style="fill:#00414d"/><path d="M546.3,194.74a.2.2,0,0,0-.15,0l-1,.49a0,0,0,0,0,0,.08l3,1.76a.17.17,0,0,0,.14,0l1-.49s0,0,0-.08Z" style="fill:#00414d"/><path d="M544.91,195.43a.16.16,0,0,0-.15,0l-1,.49a0,0,0,0,0,0,.08l2.34,1.35a.23.23,0,0,0,.14,0l1-.5s0,0,0-.07Z" style="fill:#00414d"/><path d="M543.52,196.11a.17.17,0,0,0-.14,0l-1,.49s0,.05,0,.08l1.94,1.11a.17.17,0,0,0,.14,0l1-.49a0,0,0,0,0,0-.08Z" style="fill:#00414d"/><path d="M542.13,196.8a.17.17,0,0,0-.14,0l-1,.49a0,0,0,0,0,0,.08l1.19.69a.16.16,0,0,0,.15,0l1-.49a0,0,0,0,0,0-.08Z" style="fill:#00414d"/><path d="M540.75,197.49a.16.16,0,0,0-.15,0l-.57.28s0,.05,0,.08l1.28.74a.2.2,0,0,0,.15,0l.57-.28s0-.06,0-.08Z" style="fill:#00414d"/><path d="M550.9,195.72a.2.2,0,0,0-.17,0l-1.15.57s0,.06,0,.09l1.17.68a.2.2,0,0,0,.17,0l1.15-.57s0-.06,0-.09Z" style="fill:#00414d"/><path d="M549.64,196.67a.23.23,0,0,0-.14,0l-1,.5s0,.05,0,.07l1.2.69a.14.14,0,0,0,.14,0l1-.49s0-.05,0-.08Z" style="fill:#00414d"/><path d="M547.55,197a.2.2,0,0,0-.15,0l-1,.5s0,.05,0,.07l1.2.69a.14.14,0,0,0,.14,0l1-.49s0-.05,0-.08Z" style="fill:#00414d"/><path d="M545.76,197.41a.14.14,0,0,0-.14,0l-1,.49a0,0,0,0,0,0,.08l1.2.69a.17.17,0,0,0,.14,0l1-.5s0,0,0-.07Z" style="fill:#00414d"/><path d="M543.63,197.66a.2.2,0,0,0-.15,0l-1,.49s0,0,0,.08l1.2.69a.17.17,0,0,0,.14,0l1-.49s0-.05,0-.08Z" style="fill:#00414d"/><path d="M542.29,198.38a.17.17,0,0,0-.14,0l-.57.28a0,0,0,0,0,0,.08l1.29.75a.19.19,0,0,0,.15,0l.56-.28s0,0,0-.08Z" style="fill:#00414d"/><path d="M552.42,196.6a.23.23,0,0,0-.18,0l-1.15.57s0,.07,0,.1l1.46.84a.23.23,0,0,0,.18,0l1.15-.57s0-.06,0-.09Z" style="fill:#00414d"/><path d="M551.14,197.54a.17.17,0,0,0-.14,0l-1,.49a0,0,0,0,0,0,.08l1.19.69a.16.16,0,0,0,.15,0l1-.49a0,0,0,0,0,0-.08Z" style="fill:#00414d"/><path d="M549.05,197.82a.16.16,0,0,0-.15,0l-1,.49a0,0,0,0,0,0,.08l1.2.69a.17.17,0,0,0,.14,0l1-.49s0-.06,0-.08Z" style="fill:#00414d"/><path d="M547.26,198.27a.17.17,0,0,0-.14,0l-1,.49s0,.05,0,.08l1.19.69a.19.19,0,0,0,.15,0l1-.49s0,0,0-.07Z" style="fill:#00414d"/><path d="M545.12,198.53a.14.14,0,0,0-.14,0l-1,.49a0,0,0,0,0,0,.08l1.2.69a.17.17,0,0,0,.14,0l1-.49a0,0,0,0,0,0-.08Z" style="fill:#00414d"/><path d="M543.84,199.27a.17.17,0,0,0-.14,0l-.57.28s0,0,0,.08l1.29.74a.2.2,0,0,0,.15,0l.56-.28a0,0,0,0,0,0-.08Z" style="fill:#00414d"/><path d="M554.22,197.64a.2.2,0,0,0-.17,0l-1.15.57s0,.06,0,.09l7.2,4.16a.2.2,0,0,0,.17,0l1.15-.57c.05,0,0-.06,0-.09Z" style="fill:#00414d"/><path d="M552.65,198.41a.16.16,0,0,0-.15,0l-1,.49a0,0,0,0,0,0,.08l1.2.69a.17.17,0,0,0,.14,0l1-.49s0-.06,0-.08Z" style="fill:#00414d"/><path d="M550.55,198.68a.26.26,0,0,0-.15,0l-1,.5s0,.05,0,.07l1.2.69a.14.14,0,0,0,.14,0l1-.49s0,0,0-.08Z" style="fill:#00414d"/><path d="M548.77,199.14a.2.2,0,0,0-.15,0l-1,.49s0,.05,0,.07l1.2.69a.14.14,0,0,0,.14,0l1-.49s0,0,0-.08Z" style="fill:#00414d"/><path d="M546.62,199.39a.17.17,0,0,0-.14,0l-1,.5s0,.05,0,.07l1.19.69a.16.16,0,0,0,.15,0l1-.49s0,0,0-.08Z" style="fill:#00414d"/><path d="M545.39,200.17a.17.17,0,0,0-.14,0l-.57.28a0,0,0,0,0,0,.08l1.29.74a.14.14,0,0,0,.14,0l.57-.28s0-.05,0-.08Z" style="fill:#00414d"/><path d="M554.15,199.28a.14.14,0,0,0-.14,0l-1,.49s0,.05,0,.08l1.19.69a.2.2,0,0,0,.15,0l1-.5s0,0,0-.07Z" style="fill:#00414d"/><path d="M552.05,199.55a.16.16,0,0,0-.15,0l-1,.49a0,0,0,0,0,0,.08l1.2.69a.17.17,0,0,0,.14,0l1-.49a0,0,0,0,0,0-.08Z" style="fill:#00414d"/><path d="M550.27,200a.2.2,0,0,0-.15,0l-1,.49a0,0,0,0,0,0,.08l1.2.69a.14.14,0,0,0,.14,0l1-.49a0,0,0,0,0,0-.08Z" style="fill:#00414d"/><path d="M548.12,200.26a.16.16,0,0,0-.15,0l-1,.49s0,0,0,.08l1.2.69a.23.23,0,0,0,.14,0l1-.5s0-.05,0-.07Z" style="fill:#00414d"/><path d="M546.94,201.06a.17.17,0,0,0-.14,0l-.57.28s0,0,0,.07l1.29.75a.17.17,0,0,0,.14,0l.57-.28s0,0,0-.07Z" style="fill:#00414d"/><path d="M555.66,200.14a.19.19,0,0,0-.15,0l-1,.49s0,.05,0,.08l1.2.69a.17.17,0,0,0,.14,0l1-.49s0,0,0-.07Z" style="fill:#00414d"/><path d="M553.54,200.41a.17.17,0,0,0-.14,0l-1,.49s0,0,0,.07l1.19.7a.19.19,0,0,0,.15,0l1-.49s0-.05,0-.08Z" style="fill:#00414d"/><path d="M551.77,200.88a.14.14,0,0,0-.14,0l-1,.49a0,0,0,0,0,0,.08l1.19.69a.2.2,0,0,0,.15,0l1-.49a0,0,0,0,0,0-.08Z" style="fill:#00414d"/><path d="M549.61,201.12a.17.17,0,0,0-.14,0l-1,.49a0,0,0,0,0,0,.08l1.19.69a.16.16,0,0,0,.15,0l1-.49a0,0,0,0,0,0-.08Z" style="fill:#00414d"/><path d="M548.49,202a.16.16,0,0,0-.15,0l-.56.28s0,.05,0,.08l1.29.74a.17.17,0,0,0,.14,0l.57-.28a0,0,0,0,0,0-.08Z" style="fill:#00414d"/><path d="M557.16,201a.2.2,0,0,0-.15,0l-1,.49s0,.05,0,.07l1.2.7a.17.17,0,0,0,.14,0l1-.49s0-.05,0-.08Z" style="fill:#00414d"/><path d="M555,201.28a.17.17,0,0,0-.14,0l-1,.49a0,0,0,0,0,0,.08l1.19.69a.2.2,0,0,0,.15,0l1-.49a0,0,0,0,0,0-.08Z" style="fill:#00414d"/><path d="M553.28,201.75a.16.16,0,0,0-.15,0l-1,.49s0,.05,0,.08l1.2.69a.17.17,0,0,0,.14,0l1-.5s0,0,0-.07Z" style="fill:#00414d"/><path d="M558.66,201.88a.17.17,0,0,0-.14,0l-1,.5s0,0,0,.07l1.19.69a.16.16,0,0,0,.15,0l1-.49s0-.05,0-.08Z" style="fill:#00414d"/><path d="M556.54,202.14a.17.17,0,0,0-.14,0l-1,.49s0,.05,0,.08l1.19.69a.19.19,0,0,0,.15,0l1-.49s0,0,0-.08Z" style="fill:#00414d"/><path d="M554.78,202.61a.19.19,0,0,0-.15,0l-1,.49s0,.05,0,.08l1.2.69a.17.17,0,0,0,.14,0l1-.49s0,0,0-.08Z" style="fill:#00414d"/><path d="M551.11,202a.17.17,0,0,0-.14,0l-1,.49s0,.05,0,.07l1.2.7a.19.19,0,0,0,.15,0l1-.49s0-.05,0-.08Z" style="fill:#00414d"/><path d="M552.61,202.85a.16.16,0,0,0-.15,0l-1,.49a0,0,0,0,0,0,.08l1.2.69a.17.17,0,0,0,.14,0l1-.5s0-.05,0-.07Z" style="fill:#00414d"/><path d="M550,202.85a.2.2,0,0,0-.15,0l-.57.28s0,.06,0,.08l1.28.75a.19.19,0,0,0,.15,0l.57-.28s0,0,0-.08Z" style="fill:#00414d"/><path d="M561.77,202a.21.21,0,0,0-.17,0l-1.15.57c-.05,0,0,.07,0,.1l1.46.84a.2.2,0,0,0,.17,0l1.15-.57s0-.06,0-.09Z" style="fill:#00414d"/><path d="M560.17,202.75a.2.2,0,0,0-.15,0l-1,.49a0,0,0,0,0,0,.08l1.2.69a.14.14,0,0,0,.14,0l1-.49s0-.06,0-.08Z" style="fill:#00414d"/><path d="M558,203a.17.17,0,0,0-.14,0l-1,.49s0,.06,0,.08l1.19.69a.16.16,0,0,0,.15,0l1-.49a0,0,0,0,0,0-.08Z" style="fill:#00414d"/><path d="M556.28,203.48a.17.17,0,0,0-.14,0l-1,.5s0,.05,0,.07l1.19.69a.16.16,0,0,0,.15,0l1-.49s0-.05,0-.08Z" style="fill:#00414d"/><path d="M554.1,203.71a.17.17,0,0,0-.14,0l-1,.49s0,.06,0,.08l1.19.69a.16.16,0,0,0,.15,0l1-.49a0,0,0,0,0,0-.08Z" style="fill:#00414d"/><path d="M551.59,203.74a.19.19,0,0,0-.15,0l-.57.28s0,0,0,.08l1.28.74a.2.2,0,0,0,.15,0l.57-.28a0,0,0,0,0,0-.08Z" style="fill:#00414d"/><path d="M563.58,203a.19.19,0,0,0-.18,0l-1.15.57s0,.06,0,.09l1.17.67a.17.17,0,0,0,.17,0l1.15-.56s0-.07,0-.1Z" style="fill:#00414d"/><path d="M561.67,203.62a.14.14,0,0,0-.14,0l-1,.49s0,.06,0,.08l1.19.69a.2.2,0,0,0,.15,0l1-.49a0,0,0,0,0,0-.08Z" style="fill:#00414d"/><path d="M559.54,203.87a.17.17,0,0,0-.14,0l-1,.49s0,0,0,.08l1.2.69a.19.19,0,0,0,.15,0l1-.49s0,0,0-.07Z" style="fill:#00414d"/><path d="M557.79,204.35a.2.2,0,0,0-.15,0l-1,.49a0,0,0,0,0,0,.08l1.2.69a.14.14,0,0,0,.14,0l1-.49a0,0,0,0,0,0-.08Z" style="fill:#00414d"/><path d="M555.6,204.57a.19.19,0,0,0-.15,0l-1,.49s0,.05,0,.08l1.2.69a.17.17,0,0,0,.14,0l1-.49s0-.05,0-.07Z" style="fill:#00414d"/><path d="M553.13,204.64a.17.17,0,0,0-.14,0l-.57.28a0,0,0,0,0,0,.08l1.29.74a.16.16,0,0,0,.15,0l.56-.28s0-.05,0-.08Z" style="fill:#00414d"/><path d="M565.07,203.9a.17.17,0,0,0-.14,0l-.52.25s0,0,0,.08l1.2.69a.17.17,0,0,0,.14,0l.52-.25s0,0,0-.08Z" style="fill:#00414d"/><path d="M563.17,204.49a.14.14,0,0,0-.14,0l-1,.49s0,.05,0,.08l1.2.69a.17.17,0,0,0,.14,0l1-.5s0-.05,0-.07Z" style="fill:#00414d"/><path d="M561,204.74a.2.2,0,0,0-.15,0l-1,.49a0,0,0,0,0,0,.08l1.2.69a.14.14,0,0,0,.14,0l1-.49s0-.06,0-.08Z" style="fill:#00414d"/><path d="M559.29,205.22a.16.16,0,0,0-.15,0l-1,.49a0,0,0,0,0,0,.08l1.2.69a.17.17,0,0,0,.14,0l1-.49s0-.06,0-.08Z" style="fill:#00414d"/><path d="M557.09,205.44a.14.14,0,0,0-.14,0l-1,.49a0,0,0,0,0,0,.08l1.19.69a.2.2,0,0,0,.15,0l1-.49a0,0,0,0,0,0-.08Z" style="fill:#00414d"/><path d="M554.68,205.53a.17.17,0,0,0-.14,0l-.57.28s0,.05,0,.07l1.29.75a.2.2,0,0,0,.15,0l.56-.28s0,0,0-.07Z" style="fill:#00414d"/><path d="M566.58,204.77a.2.2,0,0,0-.15,0l-.51.25s0,0,0,.08l1.2.69a.23.23,0,0,0,.14,0l.52-.26s0,0,0-.08Z" style="fill:#00414d"/><path d="M568.08,205.64a.17.17,0,0,0-.14,0l-.52.25s0,.05,0,.08l1.19.69a.26.26,0,0,0,.15,0l.51-.26s0,0,0-.08Z" style="fill:#00414d"/><path d="M565.85,205.13a.17.17,0,0,0-.14,0l-.46.23s0,.05,0,.07l1.2.69a.15.15,0,0,0,.13,0l.46-.22s0-.05,0-.08Z" style="fill:#00414d"/><path d="M564.68,205.35a.2.2,0,0,0-.15,0l-1,.49s0,0,0,.08l3,1.75a.17.17,0,0,0,.14,0l1-.5s0-.05,0-.07Z" style="fill:#00414d"/><path d="M562.54,205.61a.16.16,0,0,0-.15,0l-1,.49s0,0,0,.08l1.2.69a.23.23,0,0,0,.14,0l1-.5s0-.05,0-.07Z" style="fill:#00414d"/><path d="M560.79,206.09a.14.14,0,0,0-.14,0l-1,.49s0,.05,0,.08l1.19.69a.26.26,0,0,0,.15,0l1-.5s0,0,0-.07Z" style="fill:#00414d"/><path d="M558.59,206.3a.23.23,0,0,0-.14,0l-1,.5s0,.05,0,.07l1.2.69a.16.16,0,0,0,.15,0l1-.49s0,0,0-.08Z" style="fill:#00414d"/><path d="M556.23,206.43a.14.14,0,0,0-.14,0l-.57.28s0,.05,0,.08l1.29.74a.14.14,0,0,0,.14,0l.57-.28a0,0,0,0,0,0-.08Z" style="fill:#00414d"/><g style="isolation:isolate"><path d="M564,206.47a.2.2,0,0,0-.15,0l-1,.5s0,0,0,.07l1.2.69a.14.14,0,0,0,.14,0l1-.49s0-.05,0-.08Z" style="fill:#00414d"/><path d="M562.3,207a.19.19,0,0,0-.15,0l-1,.49s0,.05,0,.08l1.2.69a.17.17,0,0,0,.14,0l1-.49s0-.05,0-.08Z" style="fill:#00414d"/><path d="M565.51,207.32a.19.19,0,0,0-.15,0L564,208l-.28-.16a.14.14,0,0,0-.14,0l-1,.49s0,0,0,.08l1.14.66a.2.2,0,0,0,.15,0l2.41-1.19s0-.05,0-.08Z" style="fill:#00414d"/></g><path d="M560.09,207.17a.16.16,0,0,0-.15,0l-1,.49s0,0,0,.08l1.2.69a.23.23,0,0,0,.14,0l1-.5s0-.05,0-.07Z" style="fill:#00414d"/><path d="M557.78,207.32a.2.2,0,0,0-.15,0l-.56.28a0,0,0,0,0,0,.08l1.29.75a.17.17,0,0,0,.14,0l.57-.28s0,0,0-.08Z" style="fill:#00414d"/><path d="M561.58,208a.17.17,0,0,0-.14,0l-1,.49a0,0,0,0,0,0,.08l2,1.14a.23.23,0,0,0,.14,0l1-.5s0-.05,0-.07Z" style="fill:#00414d"/><path d="M559.33,208.21a.2.2,0,0,0-.15,0l-.56.28s0,0,0,.08l1.29.74a.17.17,0,0,0,.14,0l.57-.28a0,0,0,0,0,0-.08Z" style="fill:#00414d"/><g style="isolation:isolate"><path d="M560.88,209.11a.2.2,0,0,0-.15,0l-.57.28s0,.06,0,.08l1.28.74a.16.16,0,0,0,.15,0l.57-.28s0-.05,0-.08Z" style="fill:#00414d"/></g><path d="M528.37,197.88a1.83,1.83,0,0,0-1.8,0l-3.9,2.25a.64.64,0,0,0,0,1.11l10.24,6a1.81,1.81,0,0,0,1.8,0l3.95-2.29a.64.64,0,0,0,0-1.11Z" style="fill:#00414d"/><path d="M547.61,173.91a2.08,2.08,0,0,0-1-1.2l-29.27-16.26c-.78-.44-2.7.69-2.42,1.54l6.29,26.33a2.06,2.06,0,0,0,.94,1.15l27.88,17.28c.77.45,2.62-1,2.36-1.83Z" style="fill:#00414d"/><path d="M546.58,174.5a2.11,2.11,0,0,0-1-1.2L516.34,157a1,1,0,0,0-1.41,1.16l5.27,26.72a2.12,2.12,0,0,0,.94,1.14L550,202.65a1,1,0,0,0,1.42-1.14Z" style="fill:#00414d"/><polygon points="526.66 199.91 534.71 204.85 534.74 189.25 528.72 185.82 526.66 199.91" style="fill:#518ca1"/><polygon points="528.72 185.76 534.74 189.19 535.21 187.46 530.06 184.51 528.72 185.76" style="fill:#00414d"/><polygon points="535.33 188.15 535.21 187.46 534.74 189.19 534.71 204.85 535.44 204.14 535.1 189.18 535.33 188.15" style="fill:#00414d"/><polygon points="517.58 161.66 517.7 162.24 543.4 177.02 543.31 176.37 517.58 161.66" style="fill:#00414d"/><path d="M591.3,150a4.24,4.24,0,0,0-5.63,2h0s-.3.63-.81,1.73l-2.1,4.6-3,6.47c-.53,1.18-1.1,2.39-1.68,3.6s-1.17,2.43-1.79,3.6l-.46.84-.11.21,0,.06,0,0s.12-.17.06-.08h0l-.07.12-.17.29,0,0-.06.09-.12.17-.27.36c-.18.25-.38.5-.58.75-.81,1-1.68,2-2.51,3l-4.66,5.43c-1.38,1.6-2.51,3-3.3,3.9l-1.24,1.49a2.15,2.15,0,0,0,2.91,3.11h0l1.58-1.17c1-.75,2.4-1.84,4-3.19s3.57-3,5.57-4.77c1-.9,2-1.85,3.08-2.9l.79-.82.41-.44.21-.24.1-.12.13-.16.44-.56.08-.11.15-.21.16-.24.63-1q1.2-1.9,2.26-3.77c.7-1.25,1.36-2.48,2-3.67s1.2-2.36,1.75-3.46,1-2.15,1.49-3.11c.91-1.94,1.63-3.57,2.12-4.72l.56-1.34.2-.47A4.24,4.24,0,0,0,591.3,150Z" style="fill:#00414d"/><path d="M578.76,181q.59-.56,1.2-1.17l.79-.82.41-.44.21-.24.1-.12.13-.16.44-.56.08-.11.15-.21.16-.24.63-1q1.2-1.9,2.26-3.77a1.62,1.62,0,0,1,.1-.18c-1.63-2.47-1.2-5.85,0-8.42.58-1.18,1.37-2.27,2.06-3.4a10.78,10.78,0,0,0,0-1.27c-2.74,4.71-4.61,10.05-6.38,15.1C580.38,176.24,579.72,178.72,578.76,181Z" style="fill:#003640"/><path d="M562.89,189.16s-4,2.58-4.66,3-.28,4.69-.33,5.37l-2.35,3.62a1.21,1.21,0,0,0,1.47,0,22.81,22.81,0,0,0,3.11-3.09s2.47-.07,3.23-.72,2.22-5.95,2.22-5.95A3.34,3.34,0,0,0,562.89,189.16Z" style="fill:#e7a384"/><path d="M560.13,198s1.62-1.19,1.81-1.31,0-.83,0-.83Z" style="fill:#b47561"/><g style="isolation:isolate"><polygon points="481.77 220.73 483.3 219.84 483.54 126.77 482 127.66 481.77 220.73" style="fill:#94c6c6;opacity:0.6000000000000001"/><g style="opacity:0.4"><polygon points="481.53 220.73 583.72 280.94 583.96 187 481.77 127.66 481.53 220.73" style="fill:#d8ffff"/></g><g style="opacity:0.4"><path d="M513,212.26c4.13,2.91,8.27,5.81,12.54,8.52,5.84,3.71,12.25,5.52,18.75,7.26L584,188.34V187L555,170.2Z" style="fill:#d8ffff"/><path d="M547.68,235.5l-1.46-.41-15,14.95,52.45,30.9L583.8,250l-3.26-1.56A233.69,233.69,0,0,0,547.68,235.5Z" style="fill:#d8ffff"/><polygon points="481.67 166.35 506.18 141.84 481.77 127.66 481.67 166.35" style="fill:#d8ffff"/></g><polygon points="583.72 280.94 585.25 280.05 585.49 186.11 583.96 187 583.72 280.94" style="fill:#94c6c6"/><polygon points="481.77 127.66 583.96 187 585.49 186.11 483.3 126.77 481.77 127.66" style="fill:#94c6c6"/></g><polygon points="584.38 233.87 481.92 174.71 481.68 165.08 464.41 174.98 584.31 244.21 653.33 204.63 644.61 199.59 584.38 233.87" style="fill:#f0f0f0"/><polygon points="584.15 307.67 653.16 268.09 653.33 204.63 584.31 244.21 584.15 307.67" style="fill:#c6c6c6"/><polygon points="464.25 238.44 584.15 307.67 584.31 244.21 464.41 174.98 464.25 238.44" style="fill:#a0a0a0"/></g><path d="M468,240.79c-.26-.36-.61-.79-1-1.28-.84-1-2-2.24-3.27-3.72-.63-.74-1.28-1.54-1.87-2.35-.29-.41-.57-.82-.79-1.21a3.71,3.71,0,0,1-.42-1s0-.11,0-.12,0,0,0,0a1,1,0,0,1,0,.17.25.25,0,0,1,0,.08V231c0,.48,0,.13,0,.24h0v-.28c0-.46.1-1,.21-1.61.19-1.19.46-2.47.75-3.76.58-2.57,1.27-5.18,1.91-7.63s1.27-4.73,1.82-6.69c1.09-3.91,1.81-6.52,1.81-6.52l0,0v0a4.49,4.49,0,0,0-8.66-2.36l-.5,1.84c-.31,1.17-.74,2.84-1.25,4.85s-1.05,4.37-1.62,6.91-1.12,5.27-1.61,8.06c-.24,1.4-.46,2.81-.63,4.29-.08.74-.15,1.51-.17,2.37v.94l.1.7c0,.22.09.43.14.64l.14.45a7,7,0,0,0,.31.78,11.53,11.53,0,0,0,1.4,2.31c.48.63.95,1.16,1.41,1.66a29.38,29.38,0,0,0,2.65,2.49c1.64,1.41,3,2.46,3.89,3.15l.89.73c.15.13.13.08.14.09a2.77,2.77,0,0,0,4.61-3.07A6.82,6.82,0,0,0,468,240.79Z" style="fill:#fb0"/><path d="M468,240.79c-.26-.36-.61-.79-1-1.28-.84-1-2-2.24-3.27-3.72-.63-.74-1.28-1.54-1.87-2.35-.29-.41-.57-.82-.79-1.21a3.71,3.71,0,0,1-.42-1s0-.11,0-.12,0,0,0,0a1,1,0,0,1,0,.17.25.25,0,0,1,0,.08V231c0,.48,0,.13,0,.24h0v-.28c0-.46.1-1,.21-1.61.19-1.19.46-2.47.75-3.76.58-2.57,1.27-5.18,1.91-7.63s1.27-4.73,1.82-6.69c1.09-3.91,1.81-6.52,1.81-6.52l0,0v0a4.48,4.48,0,0,0-2.33-5.2,3.17,3.17,0,0,1-.22,1.12c-1.75,4.53-3.73,9-5.22,13.6a53,53,0,0,0-2.32,13.76c-.18,3.47-.4,6.83-.9,10.09l.06.07a29.38,29.38,0,0,0,2.65,2.49c1.64,1.41,3,2.46,3.89,3.15l.89.73c.15.13.13.08.14.09a2.77,2.77,0,0,0,4.61-3.07A6.82,6.82,0,0,0,468,240.79Z" style="opacity:0.05"/><path d="M489.05,330.1c-.92.1-2.91.46-4.35.61a18,18,0,0,1-4.58-.17s-4.32.7-4.81,1.79-1.29,3.08-1.09,4.12c.52,2.58,3.81,3.05,5.25,2.62s4.43-1.65,6-2.22,5-1,6.12-3C493,331.47,491.83,329.8,489.05,330.1Z" style="fill:#001a20"/><path d="M471.3,322.86a76.72,76.72,0,0,1-7.82.47s-6.42.47-6.51,1.91c0,0-.88,3.24-.88,3.56,0,3.17,3.59,3.42,5,2.89s4.11-2.32,6.12-2.75c1.73-.38,3.52-.38,6.32-2.47C475.32,325.11,473.56,322.62,471.3,322.86Z" style="fill:#001a20"/><path d="M487.57,255.87c-.07-1.19-.12-2.15-.24-3.05,0-.23-.07-.46-.12-.73s-.06-.28-.11-.47-.11-.41-.22-.73c0-.1-.07-.2-.11-.3l-.07-.19c0-.08-.07-.15-.1-.23l-.1-.23-.21-.4-.21-.38L486,249l-.14-.21-.27-.39-.29-.37-.16-.18c-.14-.17-.29-.33-.44-.48a9.38,9.38,0,0,0-2.05-1.55,9.51,9.51,0,0,0-1.4-.63,8.88,8.88,0,0,0-1.65-.43,9.31,9.31,0,0,0-3.22.06,9.22,9.22,0,0,0-2.76,1,8.12,8.12,0,0,0-1.22.82,8.33,8.33,0,0,0-1,.92,8.82,8.82,0,0,0-1.18,1.55c-.16.27-.31.55-.44.82l-.1.22-.06.15a8.56,8.56,0,0,0-.4,1.13c-.17.8-.26,1.2-.26,1.2l-.07.32a9.29,9.29,0,0,0,1.44,7.23c.11.5.21,1,.32,1.59.27,1.39.56,3,.83,4.72s.55,3.66.8,5.69.5,4.17.7,6.4.39,4.54.55,6.89.26,4.75.34,7.14.17,4.84.24,7.21c0,1.21.08,2.41.12,3.59s.06,2.32.09,3.45c.06,2.31.12,4.54.18,6.65s.1,4.11.14,5.95.08,3.53.1,5,0,2.8.06,3.87c0,2.15,0,3.37,0,3.37a3.76,3.76,0,0,0,7.5.25l.06-.87c.05-.57.1-1.41.19-2.48s.2-2.36.34-3.84.29-3.15.47-5,.4-3.8.63-5.88q.18-1.56.36-3.21c.13-1.09.27-2.21.41-3.34s.28-2.33.43-3.52.3-2.36.46-3.56.31-2.4.46-3.62l.12-.91.06-.45,0-.23v-.29l.17-1.86c.2-2.49.38-5,.53-7.45s.29-4.89.39-7.24.19-4.63.23-6.8.09-4.23.09-6.14,0-3.67,0-5.25S487.63,257.06,487.57,255.87Zm-17.86,1.8-.09-.2-.06-.17-.09-.25a4.08,4.08,0,0,1-.15-.49c0-.1,0-.14,0-.18s0,0,0,0a11.91,11.91,0,0,1,.4,1.34Z" style="fill:#00323b"/><path d="M468.65,243.11a9.34,9.34,0,0,0-10.92,9.51v.06s0,1.13.13,3.11c0,1,.07,2.19.12,3.57s.09,2.93.12,4.63.08,3.53.11,5.47c0,1,0,2,0,3s0,2.06,0,3.12c0,2.11,0,4.29,0,6.5,0,1.1,0,2.21,0,3.33l0,3.32c0,2.25-.06,4.5-.1,6.71s-.11,4.4-.16,6.52-.13,4.16-.19,6.1-.14,3.78-.21,5.47-.14,3.25-.21,4.62-.12,2.57-.17,3.56-.1,1.76-.13,2.29l-.05.81h0a3.63,3.63,0,0,0,7.21.78s.05-.28.13-.8.2-1.3.36-2.27.36-2.16.59-3.52.47-2.9.76-4.57.61-3.48.94-5.4.71-3.93,1.08-6l2.38-13.15.3-1.67.27-1.74.51-3.36c.33-2.21.66-4.39,1-6.5s.62-4.14.93-6.06.58-3.75.85-5.43.52-3.22.75-4.59.43-2.55.59-3.53c.35-2,.54-3.08.54-3.08A9.3,9.3,0,0,0,468.65,243.11Z" style="fill:#00323b"/><path d="M459.56,243c-2.66,7.13-2.24,15,.19,16.81s11.51,7.9,15.77,8.6c2,.33,10.72-2.43,11.92-5.6,1.38-3.67-.52-12.83-.52-12.83S462.23,235.88,459.56,243Z" style="fill:#00323b"/><path d="M476,196.73a19.49,19.49,0,0,0-13.45.39c-2.16.79-3.86,3.2-4.81,8.37-.88,4.79,2.45,26.23,2.06,32.31-.34,5.12-1.36,4-1.72,9.19-.38,5.45,13.53,11.45,18.81,11.45A19.21,19.21,0,0,0,487.53,255a87.31,87.31,0,0,0-.91-10.77c-.27-1.46.24-15.21,2.86-23,1.33-3.91,2.17-8.41.92-11.86S483.78,199.36,476,196.73Z" style="fill:#fb0"/><path d="M490.53,211.66a7.39,7.39,0,0,0-1.26,1.22,1.31,1.31,0,0,0-.33,1.18,2.88,2.88,0,0,1-3,3.08c-1.17,3.6-2.56,7.14-3.54,10.81-1.07,4-1,7.81-1,11.9,0,5.56-.66,12.13,1.06,17.68a18.91,18.91,0,0,0,5.12-2.52,87.31,87.31,0,0,0-.91-10.77c-.27-1.46.24-15.21,2.86-23,1.08-3.2,1.84-6.78,1.4-9.88Z" style="opacity:0.05"/><path d="M470.79,198c0,2.75,8.82,4,8.82,1.29l1.1-9.4h-9.19Z" style="fill:#905f57"/><path d="M470.92,196l-.36.83c-.38.88-.88,1.93-.25,2.63,2.69,3,9.47,2.6,11.29-.09l-1.78-1.87C476.87,198.64,471.73,198.76,470.92,196Z" style="fill:#e9eded"/><path d="M468.68,189.64c0,4.15,7.38,6.51,7.38,6.51,4,0,6.95-1.79,7-6l.08-10.65-15.22,2.46Z" style="fill:#905f57"/><path d="M479.66,174.22c-2.31-1-10.47-1.37-12,4.4-2.52,9.47,2.34,15.07,2.34,15.07s3.15,2.44,5,1c2.55-2,6-5.2,6-8.43s2.09-3.73,2.09-3.73C488.13,179.07,483,175.69,479.66,174.22Z" style="fill:#1c1c1c"/><path d="M479,186.77c-.24,1.82,1,3.84,2.43,3.17l0-3.52S479.35,184.3,479,186.77Z" style="fill:#905f57"/><g style="isolation:isolate"><path d="M480.75,283.55c-1.91-1.1-3.47-.22-3.48,2l0,20.44,6.93,4,.06-20.44A7.64,7.64,0,0,0,480.75,283.55Z" style="fill:#001a20"/><path d="M510.88,273.71v-.17c0-.06,0-.11,0-.17s0-.12,0-.18h0a.88.88,0,0,0,0-.16,1.16,1.16,0,0,1,0-.18s0,0,0-.06v0a.31.31,0,0,1,0-.08c0-.07,0-.13-.05-.19l0-.13v0a1.21,1.21,0,0,0-.05-.18l-.06-.18,0,0v0a.56.56,0,0,0,0-.12,1.11,1.11,0,0,0-.07-.16.61.61,0,0,0-.05-.12v-.05c0-.06-.05-.11-.07-.17l-.09-.18,0,0v0l-.08-.15a1,1,0,0,0-.1-.17l-.05-.1,0,0-.09-.15c-.05-.08-.1-.15-.14-.23l0,0-.21-.31h0l-.15-.21c0-.05-.09-.1-.13-.16h0l-.14-.16-.13-.15,0,0,0,0-.09-.09-.15-.15,0,0,0,0a.46.46,0,0,0-.07-.07l-.16-.14-.07-.05,0,0-.05,0-.15-.12-.12-.08h0v0l-.15-.09-.15-.09,0,0-.11-.07-.15-.07-.09,0h0l0,0-.14,0-.14-.06h0l-.09,0-.15,0-.06,0h-.08l-.15,0h-.5l-.2,0h0l-.2.05h0l-.26.12-26.69,15.51.27-.12a.79.79,0,0,1,.22-.06h0l.26,0h.35l.29,0h0l.31.09h0l.33.14h0l.35.18.35.23h0a2.34,2.34,0,0,1,.31.24l0,0a3.47,3.47,0,0,1,.29.25l0,0,.29.29,0,0a3.11,3.11,0,0,1,.29.33h0a7.27,7.27,0,0,1,.53.71l.14.22.12.19a.41.41,0,0,0,.05.09c.06.11.12.22.17.33l0,0c.07.13.13.27.19.4v0l.16.4v0c.05.14.1.27.14.41v0c0,.13.08.26.11.39v0c0,.14.06.28.08.41h0c0,.13,0,.27.05.41v0c0,.13,0,.27,0,.4L484.15,310l26.69-15.51.05-20.44v-.15A.91.91,0,0,0,510.88,273.71Z" style="fill:#00242a"/><path d="M484.15,299.22l26.69-15.51,0-.63c-4.31,2.79-19.94,11.45-26.68,15.28Z" style="fill:#00181c"/></g><g style="isolation:isolate"><polygon points="496.6 270.36 496.62 274.5 498.14 275.39 498.13 271.25 496.6 270.36" style="fill:#001a20"/><g style="isolation:isolate"><g style="clip-path:url(#a)"><g style="isolation:isolate"><path d="M496.53,270.2a.17.17,0,0,1,.07.16l1.53.89a.19.19,0,0,0-.08-.17Z" style="fill:#001a1f"/></g></g></g><path d="M497.87,270l-5.25,3a2.62,2.62,0,0,0-1.18,2v4.14l.92-.54v-4.13a.57.57,0,0,1,.26-.45l5.25-3c.14-.08.26,0,.26.15v4.14l.92-.53v-4.14C499.05,270,498.52,269.67,497.87,270Z" style="fill:#00272e"/><path d="M497.18,269.07l-.06,0-.07,0h-.3l-.1,0h0l0,0h-.05l-.17.09-5.25,3-.22.16-.07.06-.1.09-.05,0,0,0,0,.05-.1.11,0,0v0l0,0a.61.61,0,0,0-.07.1l-.06.1h0l-.05.09,0,.1,0,.09h0s0,.07,0,.11,0,.07,0,.11,0,0,0,.06v0l0,0,0,.14a.19.19,0,0,0,0,.08V274a1.77,1.77,0,0,0,0,.23v4.14l1.52.89V275.1a2.45,2.45,0,0,1,0-.27v-.05l.06-.25v0c0-.09.06-.18.1-.28h0a2.44,2.44,0,0,1,.14-.28h0c.06-.09.11-.18.17-.26l0,0,.17-.21,0,0,.15-.14.07-.06a1.7,1.7,0,0,1,.22-.15l5.25-3,.22-.1h0a.65.65,0,0,1,.19,0h.22a.49.49,0,0,1,.17.06l-1.53-.89Z" style="fill:#00282f"/></g><path d="M496.38,293l4.8-2.62v-1.64l-4.8,2.71Z" style="fill:#fb0"/><path d="M492.26,272.35s.08.14.05,0Z" style="fill:#905f57"/><path d="M492.94,261.63c-2.32.31-2.11,1.11-2.34,1.64,0,0-.27,4.09.46,5.86.94,2.26,1.2,3,1.25,3.2l5.84-2.67S496.78,261.1,492.94,261.63Z" style="fill:#905f57"/><path d="M496.46,266.45a.75.75,0,0,0-.43,1,13.91,13.91,0,0,1,.82,4.44.76.76,0,0,0,.75.75h0a.76.76,0,0,0,.75-.75,15.38,15.38,0,0,0-.92-5A.75.75,0,0,0,496.46,266.45Z" style="fill:#905f57"/><path d="M494.35,266.49a.75.75,0,0,0-.29,1,12.31,12.31,0,0,1,1.33,5.23.74.74,0,0,0,.74.75h0a.75.75,0,0,0,.75-.74,13.69,13.69,0,0,0-1.52-6A.76.76,0,0,0,494.35,266.49Z" style="fill:#905f57"/><path d="M491.5,267.14a.74.74,0,0,0-.46.95,22.17,22.17,0,0,1,1.17,6,.75.75,0,0,0,.75.75h0a.75.75,0,0,0,.75-.74,23.5,23.5,0,0,0-1.26-6.52A.74.74,0,0,0,491.5,267.14Z" style="fill:#905f57"/><path d="M492.59,266.4a.76.76,0,0,0-.77.73.75.75,0,0,0,.65.76c.49.39,1.24,3.05,1.42,5.6a.74.74,0,0,0,.74.69h.05a.74.74,0,0,0,.7-.8C495.36,273.1,494.88,266.48,492.59,266.4Zm0,1.5h0Z" style="fill:#905f57"/><path d="M495.24,261.9s-.15-.76-.4-2.08-.65-3.2-1.1-5.46-1-4.88-1.47-7.63c-.24-1.38-.46-2.79-.6-4.15,0-.35-.06-.64-.08-.94l0-1-.09-2.25c-.11-3-.17-6.09-.21-9s-.09-5.55-.13-7.85c-.08-4.59-.13-7.65-.13-7.65v0a4.49,4.49,0,0,0-9,.21v0s.08,3.1.29,7.73c.12,2.31.27,5,.43,7.91s.42,6,.7,9.11a46.37,46.37,0,0,0,.61,4.9c.32,1.64.71,3.15,1.09,4.59s.78,2.8,1.18,4.08l1.13,3.6c.7,2.22,1.34,4,1.77,5.32l.69,2a2.78,2.78,0,0,0,5.35-1.44Z" style="fill:#fb0"/><g style="isolation:isolate"><polygon points="309.37 171.43 337.73 187.91 393.29 156.01 364.93 139.54 309.37 171.43" style="fill:#696969"/><polygon points="309.37 171.43 309.39 174.22 337.74 190.7 337.73 187.91 309.37 171.43" style="fill:#5e5e5e"/><polygon points="337.73 187.91 337.74 190.7 393.3 158.81 393.29 156.01 337.73 187.91" style="fill:#414141"/></g><g style="isolation:isolate"><polygon points="342.08 182.73 383.65 158.57 383.85 88.34 342.28 112.49 342.08 182.73" style="fill:#bababa"/><polygon points="317.89 168.76 342.08 182.73 342.28 112.49 318.19 63.59 317.89 168.76" style="fill:#cfcfcf"/><polygon points="318.19 63.59 342.28 112.49 383.85 88.34 359.75 39.43 318.19 63.59" style="fill:#737373"/><polygon points="327.48 66.4 345.29 102.53 374.55 85.53 356.74 49.39 327.48 66.4" style="fill:#fff"/><path d="M325.81,65.89l18.94,38.44L376.23,86,357.29,47.6Zm20,34.85L329.16,66.9l27-15.71L372.87,85Z" style="fill:#545454"/><polygon points="356.12 72.64 359.91 79.12 365.38 76.24 361.59 69.76 356.12 72.64" style="fill:#00414d"/><polygon points="351.05 63.97 354.84 70.45 360.31 67.57 356.51 61.09 351.05 63.97" style="fill:#177d90"/><polygon points="348.31 76.75 352.1 83.23 357.57 80.35 353.77 73.87 348.31 76.75" style="fill:#d5363b"/><polygon points="343.24 68.08 347.03 74.56 352.5 71.69 348.7 65.2 343.24 68.08" style="fill:#41ba5d"/><polygon points="340.5 80.86 344.29 87.34 349.75 84.47 345.96 77.98 340.5 80.86" style="fill:#fb0"/><polygon points="335.42 72.19 339.22 78.68 344.68 75.8 340.89 69.32 335.42 72.19" style="fill:#c6c6c6"/></g><path d="M347.48,33.08c-3-1.68-6.82-1.14-10.68,1.09a30.67,30.67,0,0,0-10.64,11.22c-.83,1.43-.82,3,0,3.42a1.49,1.49,0,0,0,1.48-.15,4.27,4.27,0,0,0,1.49-1.57A22,22,0,0,1,336.82,39c2.78-1.61,5.57-2,7.7-.79a1.49,1.49,0,0,0,1.49-.14,4.33,4.33,0,0,0,1.48-1.57C348.31,35.08,348.31,33.55,347.48,33.08Z" style="fill:#fff"/><path d="M357,17.61c-5.58-3.18-12.9-2.15-20.21,2.07S322.15,31.32,316.6,40.92c-.82,1.43-.82,3,0,3.43a1.51,1.51,0,0,0,1.49-.15,4.36,4.36,0,0,0,1.49-1.57c4.73-8.2,11-14.52,17.19-18.12S349.26,20,354,22.75a1.52,1.52,0,0,0,1.49-.15A4.25,4.25,0,0,0,357,21C357.81,19.61,357.81,18.09,357,17.61Z" style="fill:#fff"/><path d="M365.07,2.62c-7.83-4.47-18.09-3-28.34,2.88s-20.5,16.33-28.28,29.81c-.82,1.41-.81,2.94,0,3.42a1.52,1.52,0,0,0,1.49-.16A4.24,4.24,0,0,0,311.44,37c7-12.06,16.12-21.37,25.3-26.67S355.1,3.76,362.1,7.76a1.52,1.52,0,0,0,1.5-.17A4.26,4.26,0,0,0,365.08,6C365.9,4.62,365.89,3.09,365.07,2.62Z" style="fill:#fff"/><path d="M425.94,93.5v.08C425.9,93,425.92,93.28,425.94,93.5Z" style="fill:#d5363b"/><path d="M425.94,93.63c0,.07,0,.08,0,0Z" style="fill:#d5363b"/><path d="M425.94,93.5c-.36-4.45-2.06-8.86-3.62-13a82.26,82.26,0,0,0-4.51-10.69c-1.83-3.31-6-4.69-9.08-2-2.71,2.31-2.18,5.43-.81,8.26,1.92,3.94,3.95,7.82,5.75,11.81.54,1.21,1.08,2.43,1.56,3.67.64,1.64.69,1.37-.6,2.17-1.64,1-4,1.45-5.77,2.12a9.88,9.88,0,0,0-3,1.24,2.83,2.83,0,0,0,.79,4.83c2.85,1.14,7.76-.24,10.57-1.09,5.85-1.76,9.08-1.41,8.74-7.14Z" style="fill:#d5363b"/><path d="M425.94,93.5v0Z" style="fill:#d5363b"/><path d="M417.26,69c-2-2.68-5.72-3.6-8.53-1.2s-2.18,5.43-.81,8.26c1.92,3.94,3.95,7.82,5.75,11.81.54,1.21,1.08,2.43,1.56,3.67.64,1.64.69,1.37-.6,2.17-1.64,1-4,1.45-5.77,2.12a9.88,9.88,0,0,0-3,1.24,2.83,2.83,0,0,0,.79,4.83c2.85,1.14,7.76-.24,10.57-1.09l1.06-.3a111.75,111.75,0,0,0-2.83-29A2,2,0,0,1,417.26,69Z" style="opacity:0.1"/><path d="M354.75,75.18s-1.36.45-.26,1.78,2.58,3.24,2.58,3.24-2,.86-2.24,1.59a10.17,10.17,0,0,0-.28,3.8,17.66,17.66,0,0,0,3.12,2l.63-.58s6.1,1.12,4.34-3C361.46,81.32,354.75,75.18,354.75,75.18Z" style="fill:#f4ae9e"/><path d="M388.08,193.37a8,8,0,0,1-3.68,1c-1.39,0-3.32,0-4.2,0-2.66.07-3.59,1.8-2,3.92,1.3,1.68,4.64,1.7,6.16,2s4.49,1.08,6,1.33,4.48-.64,4.64-3.15c.06-1,.19-3.52-.44-4.55S388.08,193.37,388.08,193.37Z" style="fill:#1c1c1c"/><path d="M412.33,186.07a74.73,74.73,0,0,1-7.46-.46c-2.16-.23-3.84,2.15-2.1,3.45a12,12,0,0,0,6,2.35c1.91.42,4.45,2.1,5.84,2.63s4.73.26,4.73-2.76c0-.31-.83-3.39-.83-3.39C418.46,186.51,412.33,186.07,412.33,186.07Z" style="fill:#1c1c1c"/><path d="M406.33,123.3Z" style="fill:#6c6c6c"/><path d="M403.94,113.2a8.84,8.84,0,0,0-14,3.77c-1,2.75-.94.73-1.26,3.6-.38,3.42-1,13.82-1.23,17.25-.13,1.77-.08,15.4-.11,18.71,0,1.21,0,2.42,0,3.63.22,6.91.44,13.81.47,20.72q0,4.83,0,9.64c0,2.41-.59,5.53,2.22,6.63a3.64,3.64,0,0,0,4.88-3.14c.34-2.78.59-5.58.91-8.37q1.2-10.39,2.55-20.77c.46-3.56.9-7.12,1.41-10.67.25-1.72,2.6-17.48,3.45-20.85.4-1.58.82-3.15,1.28-4.71a8.27,8.27,0,0,1,.77-2.21,13.11,13.11,0,0,0,1.24-2.11,8.85,8.85,0,0,0,.62-4.43A9.63,9.63,0,0,0,403.94,113.2Zm2.39,10.1a5.47,5.47,0,0,1-.5,1.07c.07-.18.31-1.18.54-1.28,0,0-.05.25,0,.21Z" style="fill:#6c6c6c"/><path d="M417.92,176.41c-.26-6.83-.47-13.67-.57-20.5-.05-3.42-.65-18.65-.62-20.33q.12-8.48.47-17a8.54,8.54,0,0,0-.75-4A8.89,8.89,0,0,0,399.71,116c-.55,2.16,0,4.24.32,6.37,1.11,6.38,4.87,27.27,5.14,28.95.36,2.35.81,4.68,1.23,7,1.22,6.7,2.44,13.41,3.59,20.13.5,2.89,1.34,5.74,1.43,8.67.09,2.75,6.66,2.51,6.95,1.33a9.79,9.79,0,0,0,0-2.86C418.18,182.57,418,179.49,417.92,176.41Z" style="fill:#6c6c6c"/><path d="M389.35,116.06s-1.81,8.74-.49,12.24c1.14,3,9.42,5.66,11.37,5.34,4.07-.67,12.74-6.46,15-8.2s2.72-9.24.18-16S389.35,116.06,389.35,116.06Z" style="fill:#6c6c6c"/><path d="M417.86,72.45c-.42-5-2.29-6.08-4.35-6.84-2.95-1.09-7.65-3.35-13.08-1.53-7.47,2.51-13.15,7.41-12.62,9.84.74,3.43-1.56,9.87-.29,13.61,2.5,7.38,2.37,21.65,2.11,23a93.27,93.27,0,0,0-1,10A18.07,18.07,0,0,0,399,124.13c5,0,18.59-3.62,18.23-8.82-.34-5-1-7.14-1.3-12C415.52,97.48,418.47,79.75,417.86,72.45Z" style="fill:#d5363b"/><path d="M397.29,57l1,9c0,2.62,8.42,1.39,8.42-1.22l-.7-7.75Z" style="fill:#f4ae9e"/><path d="M406.64,62.79c-.78,2.65-6.83,2.6-8.55,1l-1.81,2c1.73,2.57,8.37,3.17,10.94.29.6-.67.12-1.68-.24-2.51Z" style="fill:#e9eded"/><path d="M395.07,57.2c0,4,2.83,5.78,6.66,5.75,0,0,7.07-2.25,7-6.22l.75-7.35L395,47Z" style="fill:#f4ae9e"/><path d="M398.29,41.41c-1.89.54-4,1.14-6,1.65-.45.12-1.45,4.92,2.7,6.88,0,0,2,.47,2,3.56s3.3,6.16,5.74,8c1.77,1.38,4.77-.95,4.77-.95s4.64-5.34,2.24-14.38C408.28,40.71,401.39,40.51,398.29,41.41Z" style="fill:#1c1c1c"/><path d="M396.56,53.66l0,3.36c1.41.64,2.54-1.29,2.31-3C398.59,51.64,396.56,53.66,396.56,53.66Z" style="fill:#f4ae9e"/><path d="M396.08,70.35l.15.06Z" style="fill:#d5363b"/><path d="M395.46,70.07l-.23-.11Z" style="fill:#d5363b"/><path d="M396.29,70.44Z" style="fill:#d5363b"/><path d="M396.23,70.41l.06,0Z" style="fill:#d5363b"/><path d="M396,70.32l-.57-.25Z" style="fill:#d5363b"/><path d="M396,70.32l.05,0Z" style="fill:#d5363b"/><path d="M394.73,69.73l-.09,0Z" style="fill:#d5363b"/><path d="M394.64,69.69Z" style="fill:#d5363b"/><path d="M394.8,69.76l-.07,0Z" style="fill:#d5363b"/><path d="M395.46,70.07c-3.89-1.78-6.76.93-8.29,4.19-2.05,4.36-8.36,17.81-9.77,17.47-2.26-.56-12-7.17-14.19-7.89-1.29-.42-3.42,2.2-2.94,3.22,1.1,2.38,4.41,5.9,5.66,7.22,2.92,3.11,10.4,8.18,13.52,7.49,2.13-.47,5.8-3.43,8.36-6.63a88.29,88.29,0,0,0,8.75-13.85C398.52,77.59,400.66,72.43,395.46,70.07Z" style="fill:#d5363b"/><path d="M395.17,69.93l-.27-.12Z" style="fill:#d5363b"/><path d="M394.9,69.81l-.1,0Z" style="fill:#d5363b"/><path d="M395.23,70l-.06,0Z" style="fill:#d5363b"/><path d="M273.58,352.85c-.74.08-2.33.37-3.49.49a14.83,14.83,0,0,1-3.66-.14s-3-.66-3.38.22-1.51,3.68-1.34,4.51c.41,2.07,3.05,2.45,4.2,2.1s3.54-1.32,4.84-1.78,4-.82,4.9-2.36C276.76,354,275.8,352.61,273.58,352.85Z" style="fill:#efb19b"/><path d="M273.58,352.85l-2.35.34c1.13.72,2,1.94,1.74,2-1.48.32-5,1.43-6.61,1.41s-3.09-.05-4.13-1.12a8.13,8.13,0,0,0-.58,3.31c.25,1.26,3.11,1.58,4.26,1.23s3.54-1.32,4.84-1.78,4-.82,4.9-2.36C276.76,354,275.8,352.61,273.58,352.85Z" style="fill:#001a20"/><path d="M251.94,287.33c-2.79,2.31-2.64,5.57-1.49,8.64,1.84,4.9,9.44,24.88,9.67,26.44s-.38,3.08,0,10.94c.1,2.18,2.8,22,2.8,22,0,.87,2.62,1.52,3.64,1.14s1.21-1.39,1.32-2.53c.74-8.12,1.83-31.67,1.82-33.48,0-2.31-5.62-23.14-7.2-29.6A6.62,6.62,0,0,0,251.94,287.33Z" style="fill:#efb19b"/><path d="M243,280.49c-3.31,1.08-4.48,4.09-4.51,7.28-.11,10.23-.09,29.22-.07,29.12,0,.09-3.76,7.87-4.49,10.29-1.27,4.26-3,15.64-4.26,19.89-.57,1.86,4.35,3.23,5.09,1.35,3.47-8.8,8.95-19.78,11.63-27.79A96.63,96.63,0,0,0,248.78,308c1-6.82,1.86-13.65,2.76-20.47A6.62,6.62,0,0,0,243,280.49Z" style="fill:#efb19b"/><path d="M238.07,263.83c-1.24-1.58-.79-1.75-.24-3.61.71-2.38,1.87-5.88,2.65-8.24,1.15-3.52,2.53-7,3.55-10.57.74-2.63-.33-5.52-3.31-6-3.95-.66-5,3.21-5.87,6.11-1.31,4.22-3.61,12.56-4.7,16.85-1,4.09-1.32,5.41.23,7.39,2.54,3.25,6.93,6.61,10.27,8.92a7.87,7.87,0,0,0,2.53,1.45,2.58,2.58,0,0,0,2.79-3.85C243.9,269,240.44,266.83,238.07,263.83Z" style="fill:#1ea5be"/><path d="M238.07,263.83c-1.24-1.58-.79-1.75-.24-3.61.71-2.38,1.87-5.88,2.65-8.24,1.15-3.52,2.53-7,3.55-10.57A4.65,4.65,0,0,0,242,235.8a2.87,2.87,0,0,1-.07.5,51.87,51.87,0,0,1-3.39,9.57c-1.31,3.09-2.27,6.29-3.42,9.45-.47,1.3-1,2.6-1.45,3.89.52,5,2.77,9.75,5.18,14.16.63.46,1.24.89,1.82,1.29a7.87,7.87,0,0,0,2.53,1.45,2.58,2.58,0,0,0,2.79-3.85C243.9,269,240.44,266.83,238.07,263.83Z" style="opacity:0.05"/><path d="M239.14,269.87a63.12,63.12,0,0,0-2.32,13.3l-2.91,26.36c2.36,1.77,14.36,5.3,20.46,3.85,2-.47,13-3.48,14.2-6.56l-7.74-32.55S241.73,263,239.14,269.87Z" style="fill:#00323b"/><path d="M258.86,236.05c-1.81-2.24-7.83-3.66-9.9-3.94a21.39,21.39,0,0,0-9,1.08c-2.1.74-3.85,3.59-4.78,8.4-.86,4.44,4.46,18.08,3.93,26-.15,2.31-2.19,9.45-2.19,9.45,1.21,1.9,10.65,3.64,15.74,3.1,9.36-1,9-4.66,9-4.66s-1.89-14.09-2.61-17.8c-.26-1.35,2.95-1,3.77-6.38.16-1.05-.37-3.92-2.18-7.88C259.39,240.69,259.67,237.05,258.86,236.05Z" style="fill:#1ea5be"/><path d="M258.86,236.05l-.19-.21-1.23,1.5c-.69.85-1.89,2.08-2,3.21a4.07,4.07,0,0,1-.72,1.93c0,.07,0,.22,0,.2-2.35-.74-5.27,16.59-3.42,23.07.89,3.14,5.41,11.08,6.44,13.39,4.18-1.45,4-3.62,4-3.62s-1.89-14.09-2.61-17.8c-.26-1.35,2.95-1,3.77-6.38.16-1.05-.37-3.92-2.18-7.88C259.39,240.69,259.67,237.05,258.86,236.05Z" style="opacity:0.05"/><path d="M241.89,218.61l.9,7.38c.05,4,7.21,6.12,7.21,6.12,3.85-.05,6.64-1.85,6.59-5.92L256.46,216Z" style="fill:#efb19b"/><path d="M253,211c-2.24-.95-10.19-1.14-11.45,4.46-4.61,20.61-1.43,23.95-1.43,23.95s6.77,1.92,8.53.51c2.41-2,5.92-14.27,5.88-17.38s1.93-3.63,1.93-3.63C261.27,215.47,256.23,212.32,253,211Z" style="fill:#07242a"/><path d="M252.66,223c-.19,1.76,1,3.67,2.4,3l-.05-3.38S252.93,220.66,252.66,223Z" style="fill:#efb19b"/><path d="M238.26,354.06c-2.06-.59-3.52-6.21-3.52-6.21a6.27,6.27,0,0,1-5.09-.78s-2.06,2.65-2.25,4.15,2.27,3.81,5.14,5.26c1.14.58,4.3.56,5.48.59,2.11.05,2.85-.34,2.25-1.36C239.9,355.09,240.31,354.66,238.26,354.06Z" style="fill:#efb19b"/><path d="M237.91,353.91c-1.37.36-4.3-3.1-5.22-4.14a6.29,6.29,0,0,0-3.75-1.71,9.41,9.41,0,0,0-1.54,3.16c-.18,1.5,2.27,3.81,5.14,5.26a22.37,22.37,0,0,0,6,1.1c2.1.06,3.13-1.08,2.53-2.1C240.66,354.87,239.88,354.5,237.91,353.91Z" style="fill:#001a20"/><g style="isolation:isolate"><g style="isolation:isolate"><g style="clip-path:url(#b)"><g style="isolation:isolate"><path d="M274.63,285.43l.42.24.09,0-.42-.24Z" style="fill:#00282f"/><path d="M274.72,285.39l.42.24.07,0-.42-.25Z" style="fill:#00272e"/><path d="M274.79,285.36l.42.25h.06l-.43-.25Z" style="fill:#00262d"/><path d="M274.84,285.35l.43.25h0l-.42-.24Z" style="fill:#00252c"/><path d="M274.89,285.35l.42.24h0l-.42-.24Z" style="fill:#00242a"/><path d="M274.93,285.35l.42.24h0l-.42-.25Z" style="fill:#002329"/><path d="M275,285.35l.42.25h0l-.42-.24Z" style="fill:#002228"/><path d="M275,285.36l.42.24,0,0-.43-.25Z" style="fill:#002127"/><path d="M275,285.37l.43.25h0l-.43-.25Z" style="fill:#002026"/><polygon points="275.49 285.63 275.27 285.5 275.49 285.63 275.49 285.63" style="fill:#001f25"/><polygon points="275.06 285.38 275.27 285.5 275.07 285.39 275.06 285.38" style="fill:#001f25"/></g></g></g><g style="isolation:isolate"><g style="clip-path:url(#c)"><g style="isolation:isolate"><path d="M266.33,294.74a.42.42,0,0,0,.18.39l.42.24a.4.4,0,0,1-.18-.38Z" style="fill:#001a1f"/></g></g></g><polygon points="266.32 290.93 266.33 294.74 266.75 294.99 266.74 291.17 266.32 290.93" style="fill:#001a20"/><polygon points="266.93 289.88 267.35 290.12 275.05 285.68 274.63 285.43 266.93 289.88" style="fill:#002b33"/><path d="M275.05,285.67l-7.7,4.45a1.38,1.38,0,0,0-.61,1.05V295c0,.38.28.54.62.34l7.7-4.44a1.38,1.38,0,0,0,.61-1.06V286C275.67,285.63,275.39,285.48,275.05,285.67Z" style="fill:#00272e"/><g style="isolation:isolate"><g style="clip-path:url(#d)"><g style="isolation:isolate"><path d="M266.32,290.93l.42.24s0-.08,0-.12l-.42-.24A.49.49,0,0,0,266.32,290.93Z" style="fill:#001a1f"/><path d="M266.33,290.81l.42.24a.31.31,0,0,1,0-.08l-.43-.24S266.33,290.78,266.33,290.81Z" style="fill:#001b20"/><path d="M266.34,290.73l.43.24s0-.05,0-.07l-.42-.24A.64.64,0,0,0,266.34,290.73Z" style="fill:#001c21"/><path d="M266.36,290.66l.42.24s0,0,0-.06l-.42-.25A.64.64,0,0,1,266.36,290.66Z" style="fill:#001d22"/><path d="M266.38,290.59l.42.25s0,0,0-.06l-.42-.24S266.39,290.58,266.38,290.59Z" style="fill:#001e23"/><path d="M266.4,290.54l.42.24s0,0,0,0l-.42-.25S266.41,290.52,266.4,290.54Z" style="fill:#001f25"/><path d="M266.42,290.48l.42.25,0-.05-.42-.25Z" style="fill:#002026"/><path d="M266.45,290.43l.42.25s0,0,0-.06l-.42-.24S266.45,290.41,266.45,290.43Z" style="fill:#002127"/><path d="M266.47,290.38l.42.24,0-.05-.42-.24Z" style="fill:#002228"/><path d="M266.5,290.33l.42.24,0-.05-.42-.24Z" style="fill:#002329"/><path d="M266.53,290.28l.42.24,0,0-.42-.25Z" style="fill:#00242a"/><path d="M266.57,290.22l.42.25,0-.06-.42-.24Z" style="fill:#00252c"/><path d="M266.61,290.17l.42.24.05-.06-.42-.24Z" style="fill:#00262d"/><path d="M266.66,290.11l.42.24.07-.07-.42-.25Z" style="fill:#00272e"/><path d="M266.73,290l.42.25a1,1,0,0,1,.2-.16l-.42-.24A1,1,0,0,0,266.73,290Z" style="fill:#00282f"/></g></g></g></g><path d="M272.19,284.1l-2-3.09-3.9,2.74,1.73,1.92s-.42,2.11.8,3.1c1,.8,1.49,3.1,1.4,4.9l-.91.52a2.7,2.7,0,0,0,1.87.55,14.47,14.47,0,0,0,3.84-2.38c.16-.26.34-4.07,0-4.58S272.19,284.1,272.19,284.1Z" style="fill:#efb19b"/><path d="M261.81,263.62c-.78-8.09-1.12-16.33-1.5-24.56a4.39,4.39,0,0,0-6.67-3.5c-2.83,1.78-2,5.45-1.77,8.24.27,4,1.44,19.7,2,21.58.35,1.24,2.36,7.22,13.07,19.16,1.1,1.23,4.85-1.81,4.31-2.68C267.91,276.5,263.81,269.61,261.81,263.62Z" style="fill:#1ea5be"/><g style="isolation:isolate"><polygon points="72.83 263.34 122.57 292.56 122.99 126.64 73.24 97.43 72.83 263.34" style="fill:#f7f7f7"/><polygon points="122.57 292.56 128.13 290.06 128.55 124.15 122.99 126.64 122.57 292.56" style="fill:#f0f0f0"/><polygon points="73.24 97.43 122.99 126.64 128.55 124.15 78.81 94.94 73.24 97.43" style="fill:#efefef"/></g><g style="isolation:isolate"><polygon points="124.49 291.7 126.83 290.34 127.19 129 124.85 130.36 124.49 291.7" style="fill:#94c6c6;opacity:0.6000000000000001"/><g style="opacity:0.4"><polygon points="124.49 291.61 191.78 330.14 192.14 170.28 124.49 130.36 124.49 291.61" style="fill:#d8ffff"/></g><polygon points="124.49 186.27 159.65 151.11 124.49 130.36 124.49 186.27" style="fill:#b2fffd;opacity:0.2"/><path d="M124.49,250v15.21l24-24c14.54-14.54,29.08-48.12,43.62-62.66l0-8.26-4.37-2.59C166.67,188.79,145.58,228.92,124.49,250Z" style="fill:#b2fffd;opacity:0.2"/><path d="M124.49,291.61l67.29,38.53.36-159.86-67.65-39.92Zm2.74-156.45,62.17,36.68-.35,153.58L127.23,290Z" style="fill:#a7a7a7"/><polygon points="191.78 330.14 194.12 328.78 194.49 168.91 192.14 170.28 191.78 330.14" style="fill:#888"/><polygon points="124.49 130.36 192.14 170.28 194.49 168.91 126.83 129 124.49 130.36" style="fill:#888"/><polygon points="124.49 291.61 191.78 330.14 194.12 328.78 126.83 290.24 124.49 291.61" style="fill:#94c6c6;opacity:0.2"/></g><g style="isolation:isolate"><polygon points="144.34 306.49 146.68 305.13 147.04 143.78 144.7 145.15 144.34 306.49" style="fill:#94c6c6;opacity:0.6000000000000001"/><g style="opacity:0.4"><polygon points="144.34 306.39 211.63 344.93 211.99 185.06 144.34 145.15 144.34 306.39" style="fill:#d8ffff"/></g><g style="opacity:0.4"><path d="M144.34,185.61Q157.15,172.92,170,160.3l-25.68-15.15Z" style="fill:#d8ffff"/><path d="M211.63,344.93l.23-88.61C193,275.15,174.19,294,155.13,312.57Z" style="fill:#d8ffff"/><polygon points="144.34 203.48 144.34 288.7 211.95 202.05 211.99 185.06 181.02 166.79 144.34 203.48" style="fill:#b2fffd"/></g><path d="M144.34,306.39l67.29,38.54L212,185.07l-67.65-39.92ZM147.08,150l62.17,36.68-.35,153.58L147.08,304.8Z" style="fill:#a7a7a7"/><polygon points="211.63 344.93 213.97 343.57 214.34 183.7 211.99 185.06 211.63 344.93" style="fill:#888"/><polygon points="144.34 145.15 211.99 185.06 214.34 183.7 146.68 143.78 144.34 145.15" style="fill:#888"/><polygon points="144.34 306.39 211.63 344.93 213.97 343.57 146.68 305.03 144.34 306.39" style="fill:#94c6c6;opacity:0.2"/></g><g style="isolation:isolate"><polygon points="284.61 382.54 286.96 381.18 287.32 219.83 284.98 221.19 284.61 382.54" style="fill:#94c6c6;opacity:0.6000000000000001"/><g style="opacity:0.4"><polygon points="284.61 382.44 351.91 420.98 352.27 261.11 284.61 221.19 284.61 382.44" style="fill:#d8ffff"/></g><g style="opacity:0.4"><path d="M284.61,317.69v64.75l22.21,12.72,45.27-64.31.18-69.74-6.73-4C325.2,277.29,304.68,297.27,284.61,317.69Z" style="fill:#b2fffd"/><polygon points="284.61 268.32 314.25 238.68 284.61 221.19 284.61 268.32" style="fill:#d8ffff"/></g><path d="M284.61,382.44,351.91,421l.36-159.87-67.66-39.92ZM287.36,226l62.17,36.69-.35,153.58-61.82-35.41Z" style="fill:#a7a7a7"/><polygon points="351.91 420.98 354.25 419.62 354.61 259.75 352.27 261.11 351.91 420.98" style="fill:#888"/><polygon points="284.61 221.19 352.27 261.11 354.61 259.75 286.96 219.83 284.61 221.19" style="fill:#888"/><polygon points="284.61 382.44 351.91 420.98 354.25 419.62 286.96 381.08 284.61 382.44" style="fill:#94c6c6;opacity:0.2"/></g><g style="isolation:isolate"><polygon points="347.55 421.06 397.3 450.28 397.71 284.37 347.97 255.16 347.55 421.06" style="fill:#f7f7f7"/><polygon points="397.3 450.28 402.86 447.79 403.28 281.88 397.71 284.37 397.3 450.28" style="fill:#f0f0f0"/><polygon points="347.97 255.16 397.71 284.37 403.28 281.88 353.53 252.66 347.97 255.16" style="fill:#efefef"/></g><path d="M272.84,171.85,275,197.38c0,.12,0,.24,0,.36.2,1.58,1.35,3.13,3.45,4.34,4.62,2.67,12.09,2.67,16.68,0,2.6-1.51,3.72-3.55,3.36-5.52l2.2-24.71Z" style="fill:#a0a0a0"/><path d="M296.25,166.81a21,21,0,0,0-19,0c-2.4,1.39-3.72,3.2-3.72,5.1s1.35,3.73,3.78,5.14a21.06,21.06,0,0,0,19,0c2.4-1.39,3.72-3.21,3.72-5.1S298.68,168.21,296.25,166.81Z" style="fill:#47392f"/><path d="M296.59,166.22a21.74,21.74,0,0,0-19.7,0c-5.43,3.15-5.4,8.26.06,11.41a21.65,21.65,0,0,0,19.7,0C302.08,174.48,302.05,169.37,296.59,166.22ZM296,176.46a20.38,20.38,0,0,1-18.34,0c-2.22-1.28-3.44-2.89-3.44-4.55s1.2-3.25,3.38-4.52a18.48,18.48,0,0,1,9.15-2.18,18.75,18.75,0,0,1,9.19,2.18c2.22,1.28,3.44,2.9,3.44,4.56S298.15,175.2,296,176.46Z" style="fill:#a0a0a0"/><path d="M300.39,140.22c-5.54,11.16-11.3,36-11.3,36s9.3-17.65,12.19-25,5.08-22.15,5.08-22.15S305.92,129.06,300.39,140.22Z" style="fill:#34954a"/><path d="M277.05,140.3c-.43,23.51,8.56,33.06,8.56,33.06,4.23-9-5.53-66.27-5.53-66.27S277.47,116.8,277.05,140.3Z" style="fill:#34954a"/><path d="M288.7,117.05c-.65-16-3.58-19-2.84-16.21s-2.37,19.24-2.82,38a101,101,0,0,0,5.66,34.65s1.78-9.91,1.63-28.8C290.24,133.74,289.35,133,288.7,117.05Z" style="fill:#41ba5d"/><path d="M296.5,110.45s-4.83,9.21-5.77,23.85-2.56,32.84-.13,42.19a71.9,71.9,0,0,1,3.14-16.81c2.63-7.56,3.48-27.93,3.09-34.58S296.5,110.45,296.5,110.45Z" style="fill:#41ba5d"/><path d="M267.18,131.75s3.95,30,14.67,41.61c0,0-.45-17.34-4.47-23.94S267.18,131.75,267.18,131.75Z" style="fill:#41ba5d"/><path d="M629.69,312.34c-.36,2,.79,4.14,3.47,5.7,4.74,2.75,12.45,2.75,17.22,0,2.16-1.25,3.34-2.85,3.55-4.48h0a2.31,2.31,0,0,0,0-.37l2.21-26.34H627.42Z" style="fill:#a0a0a0"/><path d="M651.65,281.64a21.78,21.78,0,0,0-19.64,0c-2.51,1.45-3.89,3.33-3.89,5.31s1.36,3.82,3.83,5.26a21.67,21.67,0,0,0,19.63,0c2.51-1.45,3.89-3.33,3.9-5.31S654.12,283.08,651.65,281.64Z" style="fill:#473b2f"/><path d="M652,281a22.41,22.41,0,0,0-20.34,0c-5.63,3.25-5.66,8.52-.06,11.77a22.39,22.39,0,0,0,20.33,0C657.56,289.56,657.59,284.29,652,281Zm-.77,10.57a21,21,0,0,1-18.93,0c-2.25-1.31-3.49-3-3.48-4.66s1.26-3.38,3.54-4.7a21,21,0,0,1,18.94,0c2.24,1.31,3.48,3,3.48,4.66S653.52,290.29,651.23,291.61Z" style="fill:#a0a0a0"/><path d="M633,259.88c.86,4.82,9.23,14.53,9.23,14.53s7.83-8.35,9.44-15.23c1.91-8.16-8.72-21-8.72-21C634.49,245,631.33,250.46,633,259.88Z" style="fill:#34955a"/><path d="M642.62,270.07c-.06-5.2-.15-10.4-.23-14.29l-.15-6.5s0,2.6-.11,6.5-.2,9.09-.35,14.29c-.08,2.59-.17,5.19-.24,7.63s-.19,4.7-.26,6.65-.17,3.56-.23,4.7-.1,1.78-.1,1.78h0a.85.85,0,0,0,1.69.08v0s0-.65,0-1.79,0-2.77,0-4.72,0-4.23,0-6.67S642.65,272.67,642.62,270.07Z" style="fill:#41ba71"/><path d="M630.78,263a44.86,44.86,0,0,0-15.16-7.18s-8.35,29.59,19.91,24.77C635.53,280.58,638.71,268.66,630.78,263Z" style="fill:#34955a"/><path d="M638.91,288.45c0-.26-.14-.63-.26-1.11-.24-.94-.59-2.29-1.14-3.88-.15-.4-.3-.81-.47-1.23s-.38-.86-.62-1.32a18.27,18.27,0,0,0-1.69-2.53c-1.28-1.66-2.74-3.31-4.25-4.92-3-3.22-6.18-6.26-8.58-8.52s-4-3.72-4-3.72,1.57,1.54,3.86,3.9,5.31,5.56,8.15,8.89c1.41,1.66,2.79,3.37,4,5a16.55,16.55,0,0,1,1.48,2.46,12.69,12.69,0,0,1,.48,1.21c.15.4.27.8.39,1.18.45,1.55.73,2.87.91,3.8.09.47.16.83.2,1.08l.06.37v0a.85.85,0,1,0,1.67-.27v0Z" style="fill:#41ba71"/><path d="M651.63,264c-5.59,7-3.19,16.27-3.19,16.27s10.44-.41,15.2-3.84,7.57-17.67,7.57-17.67S657.22,257,651.63,264Z" style="fill:#34955a"/><path d="M657.71,268.73c-.76.65-1.52,1.35-2.29,2.08l-1.14,1.1c-.37.39-.75.76-1.12,1.15-.73.78-1.46,1.58-2.14,2.39l-.5.61-.49.62c-.33.4-.63.82-.93,1.23-.59.82-1.13,1.64-1.61,2.44-.25.4-.46.81-.68,1.19s-.38.78-.57,1.15-.32.74-.47,1.08a9.63,9.63,0,0,0-.38,1,14.78,14.78,0,0,0-.5,1.69,4.91,4.91,0,0,0-.14.63q-.06.29-.09.48l-.08.4a.84.84,0,0,0,1.66.31v-.11s0-.12,0-.36,0-.26.06-.43a5.2,5.2,0,0,1,.09-.58c.1-.43.2-1,.39-1.56a7.81,7.81,0,0,1,.3-.94c.13-.33.23-.69.39-1s.3-.73.49-1.11.37-.77.59-1.16c.42-.79.9-1.61,1.43-2.43.28-.41.55-.83.85-1.24.14-.21.29-.42.44-.62s.31-.42.47-.62c.62-.83,1.29-1.65,2-2.45.34-.4.7-.79,1.05-1.19l1.07-1.15c.72-.75,1.44-1.48,2.16-2.17,1.44-1.38,2.83-2.61,4-3.64,2.44-2.06,4.18-3.29,4.18-3.29s-1.8,1.14-4.34,3.08C660.68,266.24,659.22,267.41,657.71,268.73Z" style="fill:#41ba71"/><path d="M407.07,496.64,3,261.93,0,267,402.65,500.88V570.6h5.88V499.18A3,3,0,0,0,407.07,496.64Z" style="fill:#fff"/></svg>